<svg xmlns="http://www.w3.org/2000/svg" viewBox="0 0 107.235 100">
  <defs>
    <style>
      .cls-1 {
        fill: #565656;
      }

      .cls-2, .cls-3 {
        fill: #ced8d8;
      }

      .cls-12, .cls-3 {
        opacity: 0.67;
      }

      .cls-4 {
        fill: #1e1e1e;
      }

      .cls-5 {
        fill: #8c8c8c;
      }

      .cls-6 {
        fill: #b5b5b5;
      }

      .cls-7 {
        fill: #dadada;
      }

      .cls-8 {
        fill: #4f4f4f;
      }

      .cls-9 {
        fill: #353535;
      }

      .cls-10 {
        fill: #ce454c;
      }

      .cls-11 {
        fill: #848484;
      }

      .cls-12, .cls-19, .cls-20, .cls-39 {
        fill: #bababa;
      }

      .cls-13 {
        fill: #f4f4f4;
      }

      .cls-14 {
        fill: #6b6b6b;
      }

      .cls-15 {
        fill: #b7b6b3;
      }

      .cls-16 {
        fill: #a0a0a0;
      }

      .cls-17 {
        fill: #f9921c;
      }

      .cls-18 {
        fill: #fff;
      }

      .cls-19 {
        opacity: 0.65;
      }

      .cls-20 {
        opacity: 0.18;
      }

      .cls-21 {
        fill: #a07b57;
      }

      .cls-22, .cls-67 {
        fill: #c9a681;
      }

      .cls-23 {
        fill: #e2c39a;
      }

      .cls-24, .cls-27 {
        fill: #dbb88e;
      }

      .cls-24, .cls-43 {
        opacity: 0.59;
      }

      .cls-25 {
        fill: #a37f5a;
      }

      .cls-26, .cls-35 {
        fill: #896749;
      }

      .cls-26 {
        opacity: 0.86;
      }

      .cls-28 {
        fill: #454c53;
      }

      .cls-29, .cls-32 {
        fill: none;
        stroke: #454c53;
        stroke-miterlimit: 10;
      }

      .cls-30 {
        fill: #f3d6ac;
      }

      .cls-31 {
        fill: #b79269;
      }

      .cls-32 {
        stroke-width: 0.954px;
      }

      .cls-33 {
        fill: #726457;
      }

      .cls-34 {
        fill: #474340;
      }

      .cls-35 {
        opacity: 0.41;
      }

      .cls-36 {
        fill: #cca77f;
      }

      .cls-37 {
        fill: #a07a55;
      }

      .cls-38 {
        fill: #c6a47f;
      }

      .cls-39 {
        opacity: 0.51;
      }

      .cls-40, .cls-43, .cls-44, .cls-45 {
        fill: #f9bbaf;
      }

      .cls-41 {
        fill: #262626;
      }

      .cls-42 {
        fill: #e5a39a;
      }

      .cls-44 {
        opacity: 0.58;
      }

      .cls-45 {
        opacity: 0.29;
      }

      .cls-46 {
        fill: #e09b92;
      }

      .cls-47 {
        fill: #dd6b6b;
      }

      .cls-48 {
        fill: #353433;
      }

      .cls-49 {
        fill: #f9f3ed;
      }

      .cls-50, .cls-57 {
        fill: #d3cfcb;
      }

      .cls-50 {
        opacity: 0.43;
      }

      .cls-51, .cls-52 {
        fill: #54514f;
      }

      .cls-52 {
        opacity: 0.5;
      }

      .cls-53 {
        fill: #3a3938;
      }

      .cls-54 {
        fill: #a44;
      }

      .cls-55 {
        fill: #d3cec9;
      }

      .cls-56 {
        fill: #5e95ad;
      }

      .cls-57 {
        opacity: 0.74;
      }

      .cls-58 {
        fill: #212121;
      }

      .cls-59 {
        fill: #d64d4d;
      }

      .cls-60, .cls-63 {
        fill: #d35959;
      }

      .cls-61 {
        fill: #dbd2cc;
      }

      .cls-62 {
        fill: #e2a39a;
      }

      .cls-63 {
        opacity: 0.21;
      }

      .cls-64 {
        fill: #f29999;
      }

      .cls-65 {
        fill: #dd4747;
        fill-rule: evenodd;
      }

      .cls-66 {
        fill: #a5805b;
      }

      .cls-67 {
        opacity: 0.64;
      }
    </style>
  </defs>
  <g id="グループ化_88" data-name="グループ化 88" transform="translate(-246 -991)">
    <g id="Untitled" transform="translate(-40.013 888.6)">
      <path id="パス_113" data-name="パス 113" class="cls-1" d="M400.837,875.124H299.583a2.283,2.283,0,0,1-2.283-2.283V871.6H403.12v1.242A2.283,2.283,0,0,1,400.837,875.124Z" transform="translate(-9.871 -672.724)"/>
      <path id="パス_114" data-name="パス 114" class="cls-2" d="M402.006,776.039H298.331a1.076,1.076,0,0,1-.677-1.906L313.959,760.9h72.432L402.7,774.132A1.079,1.079,0,0,1,402.006,776.039Z" transform="translate(-9.836 -575.909)"/>
      <path id="パス_115" data-name="パス 115" class="cls-3" d="M565.4,783.441H494.5c-.69,0-.991-.715-.464-1.079l11.15-7.463h49.53l11.15,7.463C566.39,782.726,566.089,783.441,565.4,783.441Z" transform="translate(-181.695 -588.153)"/>
      <g id="グループ化_40" data-name="グループ化 40" transform="translate(307.584 102.4)">
        <g id="グループ化_17" data-name="グループ化 17" transform="translate(0 0)">
          <path id="パス_116" data-name="パス 116" class="cls-4" d="M563.151,740.98H555.5V732h8.027v8.6A.386.386,0,0,1,563.151,740.98Z" transform="translate(-543.271 -653.034)"/>
          <path id="パス_117" data-name="パス 117" class="cls-4" d="M941.527,740.98h-7.651a.377.377,0,0,1-.376-.376V732h8.027Z" transform="translate(-873.861 -653.034)"/>
          <path id="パス_118" data-name="パス 118" class="cls-5" d="M464.773,410.744h-4A2.773,2.773,0,0,1,458,407.972h0a2.773,2.773,0,0,1,2.772-2.772h4a2.189,2.189,0,0,1,2.195,2.195v1.154A2.205,2.205,0,0,1,464.773,410.744Z" transform="translate(-458 -367.222)"/>
          <path id="パス_119" data-name="パス 119" class="cls-6" d="M1025.695,405.2h4a2.773,2.773,0,0,1,2.772,2.772h0a2.773,2.773,0,0,1-2.772,2.772h-4a2.189,2.189,0,0,1-2.195-2.195v-1.154A2.2,2.2,0,0,1,1025.695,405.2Z" transform="translate(-952.573 -367.222)"/>
          <path id="パス_120" data-name="パス 120" class="cls-7" d="M575.577,104.294v62.373H508.3V104.294a1.892,1.892,0,0,1,1.894-1.894h63.5A1.9,1.9,0,0,1,575.577,104.294Z" transform="translate(-501.991 -102.4)"/>
          <path id="パス_121" data-name="パス 121" class="cls-8" d="M593.032,132.692v54.421a1.268,1.268,0,0,1-.665,1.129,1.333,1.333,0,0,1-.627.163H532.892a1.333,1.333,0,0,1-.627-.163,1.268,1.268,0,0,1-.665-1.129V132.692a1.29,1.29,0,0,1,1.292-1.292h58.861A1.287,1.287,0,0,1,593.032,132.692Z" transform="translate(-522.369 -127.763)"/>
          <path id="パス_122" data-name="パス 122" class="cls-8" d="M508.3,614.8h67.29v7.25H508.3Z" transform="translate(-501.991 -550.533)"/>
          <path id="パス_123" data-name="パス 123" class="cls-7" d="M957.2,725.6h10.122v1.605H957.2Z" transform="translate(-894.589 -647.436)"/>
          <path id="パス_124" data-name="パス 124" class="cls-7" d="M515.1,725.5h10.122v1.605H515.1Z" transform="translate(-507.938 -647.349)"/>
          <path id="パス_125" data-name="パス 125" class="cls-8" d="M515.1,672.6h65.571v6.647H515.1Z" transform="translate(-507.938 -601.084)"/>
          <path id="パス_126" data-name="パス 126" class="cls-9" d="M641.128,725.6v.8H627.043a4.366,4.366,0,0,0-2.621.878c-1.43,1.066-3.976,2.747-5.958,2.747s-4.528-1.668-5.958-2.747a4.285,4.285,0,0,0-2.621-.878H595.8v-.8Z" transform="translate(-578.517 -647.436)"/>
          <path id="パス_127" data-name="パス 127" class="cls-10" d="M536.81,680.6v2.007a1.523,1.523,0,0,1-1.518,1.518H524.218a1.515,1.515,0,0,1-1.518-1.518V680.6a1.512,1.512,0,0,1,1.518-1.505h11.075A1.5,1.5,0,0,1,536.81,680.6Z" transform="translate(-514.585 -606.767)"/>
          <path id="パス_128" data-name="パス 128" class="cls-10" d="M931.91,680.6v2.007a1.523,1.523,0,0,1-1.518,1.518H919.318a1.515,1.515,0,0,1-1.518-1.518V680.6a1.512,1.512,0,0,1,1.518-1.505h11.075A1.5,1.5,0,0,1,931.91,680.6Z" transform="translate(-860.13 -606.767)"/>
          <path id="パス_129" data-name="パス 129" class="cls-11" d="M685.4,684.7h1.2v3.625h-1.2Z" transform="translate(-656.879 -611.666)"/>
          <path id="パス_130" data-name="パス 130" class="cls-11" d="M858,684.7h1.2v3.625H858Z" transform="translate(-807.831 -611.666)"/>
          <path id="パス_131" data-name="パス 131" class="cls-9" d="M531.44,738.5v9.846a1.839,1.839,0,0,1-1.844,1.844h-4.352a1.847,1.847,0,0,1-1.844-1.844V738.5Z" transform="translate(-515.197 -658.718)"/>
          <path id="パス_132" data-name="パス 132" class="cls-12" d="M527.514,738.5v11.689h-2.17a1.847,1.847,0,0,1-1.844-1.844V738.5Z" transform="translate(-515.285 -658.718)"/>
          <path id="パス_133" data-name="パス 133" class="cls-9" d="M973.627,738.5v9.959a1.713,1.713,0,0,1-1.718,1.718h-4.59a1.713,1.713,0,0,1-1.718-1.718V738.5Z" transform="translate(-901.935 -658.718)"/>
          <path id="パス_134" data-name="パス 134" class="cls-12" d="M969.514,738.5v11.689h-2.3a1.713,1.713,0,0,1-1.718-1.718v-9.959h4.014Z" transform="translate(-901.848 -658.718)"/>
          <path id="パス_135" data-name="パス 135" class="cls-7" d="M508.3,662.5h67.277v1.267H508.3Z" transform="translate(-501.991 -592.25)"/>
          <path id="パス_136" data-name="パス 136" class="cls-13" d="M508.3,604.7h67.277v1.267H508.3Z" transform="translate(-501.991 -541.7)"/>
          <path id="パス_137" data-name="パス 137" class="cls-9" d="M524.353,625.34H523.6a.108.108,0,0,1-.1-.1V621a.108.108,0,0,1,.1-.1h.753a.108.108,0,0,1,.1.1v4.239A.1.1,0,0,1,524.353,625.34Z" transform="translate(-515.285 -555.868)"/>
          <path id="パス_138" data-name="パス 138" class="cls-9" d="M539.053,625.34H538.3a.108.108,0,0,1-.1-.1V621a.108.108,0,0,1,.1-.1h.753a.108.108,0,0,1,.1.1v4.239A.1.1,0,0,1,539.053,625.34Z" transform="translate(-528.141 -555.868)"/>
          <path id="パス_139" data-name="パス 139" class="cls-9" d="M553.753,625.34H553a.108.108,0,0,1-.1-.1V621a.108.108,0,0,1,.1-.1h.753a.108.108,0,0,1,.1.1v4.239A.092.092,0,0,1,553.753,625.34Z" transform="translate(-540.997 -555.868)"/>
          <path id="パス_140" data-name="パス 140" class="cls-9" d="M568.553,625.34H567.8a.108.108,0,0,1-.1-.1V621a.108.108,0,0,1,.1-.1h.753a.108.108,0,0,1,.1.1v4.239C568.641,625.3,568.6,625.34,568.553,625.34Z" transform="translate(-553.941 -555.868)"/>
          <path id="パス_141" data-name="パス 141" class="cls-9" d="M583.253,625.34H582.5a.108.108,0,0,1-.1-.1V621a.108.108,0,0,1,.1-.1h.752a.108.108,0,0,1,.1.1v4.239A.1.1,0,0,1,583.253,625.34Z" transform="translate(-566.797 -555.868)"/>
          <path id="パス_142" data-name="パス 142" class="cls-9" d="M963.953,625.34H963.2a.108.108,0,0,1-.1-.1V621a.108.108,0,0,1,.1-.1h.753a.108.108,0,0,1,.1.1v4.239A.1.1,0,0,1,963.953,625.34Z" transform="translate(-899.749 -555.868)"/>
          <path id="パス_143" data-name="パス 143" class="cls-9" d="M978.653,625.34H977.9a.108.108,0,0,1-.1-.1V621a.108.108,0,0,1,.1-.1h.753a.108.108,0,0,1,.1.1v4.239A.1.1,0,0,1,978.653,625.34Z" transform="translate(-912.605 -555.868)"/>
          <path id="パス_144" data-name="パス 144" class="cls-9" d="M993.353,625.34H992.6a.108.108,0,0,1-.1-.1V621a.108.108,0,0,1,.1-.1h.753a.108.108,0,0,1,.1.1v4.239A.092.092,0,0,1,993.353,625.34Z" transform="translate(-925.461 -555.868)"/>
          <path id="パス_145" data-name="パス 145" class="cls-9" d="M1008.053,625.34h-.753a.108.108,0,0,1-.1-.1V621a.108.108,0,0,1,.1-.1h.753a.108.108,0,0,1,.1.1v4.239A.092.092,0,0,1,1008.053,625.34Z" transform="translate(-938.318 -555.868)"/>
          <path id="パス_146" data-name="パス 146" class="cls-9" d="M1022.853,625.34h-.753a.108.108,0,0,1-.1-.1V621a.108.108,0,0,1,.1-.1h.753a.108.108,0,0,1,.1.1v4.239A.1.1,0,0,1,1022.853,625.34Z" transform="translate(-951.261 -555.868)"/>
          <path id="パス_147" data-name="パス 147" class="cls-9" d="M658.832,626.1H619.9a.2.2,0,0,1-.2-.2v-3.8a.2.2,0,0,1,.2-.2H658.82a.2.2,0,0,1,.2.2v3.8A.181.181,0,0,1,658.832,626.1Z" transform="translate(-599.419 -556.743)"/>
          <path id="パス_148" data-name="パス 148" class="cls-14" d="M536.028,131.4v57h-3.236a1.333,1.333,0,0,1-.627-.163,1.268,1.268,0,0,1-.665-1.129V132.692a1.29,1.29,0,0,1,1.292-1.292Z" transform="translate(-522.281 -127.763)"/>
          <path id="パス_149" data-name="パス 149" class="cls-14" d="M989.828,132.692v54.421a1.268,1.268,0,0,1-.665,1.129,1.333,1.333,0,0,1-.627.163H985.3v-57h3.236A1.29,1.29,0,0,1,989.828,132.692Z" transform="translate(-919.164 -127.763)"/>
          <path id="パス_150" data-name="パス 150" class="cls-15" d="M593.032,132.692v10.887H531.6V132.692a1.29,1.29,0,0,1,1.292-1.292h58.861A1.287,1.287,0,0,1,593.032,132.692Z" transform="translate(-522.369 -127.763)"/>
          <path id="パス_151" data-name="パス 151" class="cls-16" d="M601.172,142.521H543.051a.252.252,0,0,1-.251-.251v-1.919a.252.252,0,0,1,.251-.251h58.121a.251.251,0,0,1,.251.251v1.919A.251.251,0,0,1,601.172,142.521Z" transform="translate(-532.164 -135.372)"/>
          <path id="パス_152" data-name="パス 152" class="cls-16" d="M601.172,172.721H543.051a.252.252,0,0,1-.251-.251v-1.919a.252.252,0,0,1,.251-.251h58.121a.252.252,0,0,1,.251.251v1.919A.251.251,0,0,1,601.172,172.721Z" transform="translate(-532.164 -161.784)"/>
          <path id="パス_153" data-name="パス 153" class="cls-16" d="M601.172,202.821H543.051a.252.252,0,0,1-.251-.251v-1.919a.252.252,0,0,1,.251-.251h58.121a.251.251,0,0,1,.251.251v1.919A.251.251,0,0,1,601.172,202.821Z" transform="translate(-532.164 -188.109)"/>
          <path id="パス_154" data-name="パス 154" class="cls-13" d="M531.6,228.5h61.432v1.919H531.6Z" transform="translate(-522.369 -212.684)"/>
          <path id="パス_155" data-name="パス 155" class="cls-11" d="M597,556.176a1.333,1.333,0,0,1-.627.163H537.527a1.333,1.333,0,0,1-.627-.163l3.85-4.076H593.14Z" transform="translate(-527.004 -495.697)"/>
          <path id="パス_156" data-name="パス 156" class="cls-17" d="M529.849,679v5.042h-5.531a1.515,1.515,0,0,1-1.518-1.518v-2.007a1.512,1.512,0,0,1,1.518-1.505h5.531Z" transform="translate(-514.673 -606.681)"/>
          <path id="パス_157" data-name="パス 157" class="cls-17" d="M981.149,680.518v2.007a1.523,1.523,0,0,1-1.518,1.518H974.1V679h5.531A1.523,1.523,0,0,1,981.149,680.518Z" transform="translate(-909.369 -606.681)"/>
          <path id="パス_158" data-name="パス 158" class="cls-18" d="M559.7,679h4.791v5.042H559.7Z" transform="translate(-546.944 -606.681)"/>
          <path id="パス_159" data-name="パス 159" class="cls-18" d="M955,679h4.791v5.042H955Z" transform="translate(-892.665 -606.681)"/>
          <path id="パス_160" data-name="パス 160" class="cls-19" d="M535.292,695.018H524.218A1.515,1.515,0,0,1,522.7,693.5v1.718a1.523,1.523,0,0,0,1.518,1.518h11.075a1.523,1.523,0,0,0,1.518-1.518V693.5A1.531,1.531,0,0,1,535.292,695.018Z" transform="translate(-514.585 -619.362)"/>
          <path id="パス_161" data-name="パス 161" class="cls-19" d="M930.393,695.018H919.318A1.515,1.515,0,0,1,917.8,693.5v1.718a1.523,1.523,0,0,0,1.518,1.518h11.075a1.523,1.523,0,0,0,1.518-1.518V693.5A1.531,1.531,0,0,1,930.393,695.018Z" transform="translate(-860.13 -619.362)"/>
          <path id="パス_162" data-name="パス 162" class="cls-12" d="M511.222,161.75a1.268,1.268,0,0,0,.665,1.129,1.333,1.333,0,0,0,.627.163h29.424v21.949c-1.982,0-4.528-1.668-5.958-2.747a4.285,4.285,0,0,0-2.621-.878H519.275v-.8H509.153v-6.647H508.3V104.294a1.892,1.892,0,0,1,1.894-1.894h31.745v3.637H512.514a1.29,1.29,0,0,0-1.292,1.292Z" transform="translate(-501.991 -102.4)"/>
          <path id="パス_163" data-name="パス 163" class="cls-20" d="M566.951,552.1v4.239H537.527a1.333,1.333,0,0,1-.627-.163l3.85-4.076Z" transform="translate(-527.004 -495.697)"/>
        </g>
        <g id="グループ化_39" data-name="グループ化 39" transform="translate(13.558 23.968)">
          <g id="グループ化_36" data-name="グループ化 36">
            <path id="パス_164" data-name="パス 164" class="cls-21" d="M572,339.3h14.449V351H572Z" transform="translate(-571.26 -333.556)"/>
            <path id="パス_165" data-name="パス 165" class="cls-22" d="M615.4,339.3h9.018V351H615.4Z" transform="translate(-609.217 -333.556)"/>
            <path id="パス_166" data-name="パス 166" class="cls-23" d="M0,0H1.643V2.885H0Z" transform="translate(11.565 8.643) rotate(180)"/>
            <path id="パス_167" data-name="パス 167" class="cls-23" d="M0,0H1.643V2.885H0Z" transform="translate(11.565 17.441) rotate(180)"/>
            <path id="パス_168" data-name="パス 168" class="cls-24" d="M649.2,339.3h4.766V351H649.2Z" transform="translate(-638.777 -333.556)"/>
            <path id="パス_169" data-name="パス 169" class="cls-25" d="M816.6,432.6h21.485v17.446H816.6Z" transform="translate(-785.181 -415.154)"/>
            <path id="パス_170" data-name="パス 170" class="cls-26" d="M816.6,432.6h4.754v17.446H816.6Z" transform="translate(-785.181 -415.154)"/>
            <path id="パス_171" data-name="パス 171" class="cls-27" d="M881.1,432.6h13.408v17.446H881.1Z" transform="translate(-841.592 -415.154)"/>
            <g id="グループ化_18" data-name="グループ化 18" transform="translate(6.635 14.976)">
              <path id="パス_172" data-name="パス 172" class="cls-28" d="M622,416.359v-.05a.276.276,0,0,1,.013-.1.55.55,0,0,1,.088-.238.621.621,0,0,1,.414-.288.672.672,0,0,1,.489.075c.05.038.088.075.138.113a.707.707,0,0,1,.163.3v.013a.418.418,0,0,1,.013.176H622Z" transform="translate(-621.624 -415.318)"/>
              <path id="パス_173" data-name="パス 173" class="cls-29" d="M626.713,418.4l-.013.853c0,.138.226.188.226.013" transform="translate(-625.734 -417.71)"/>
              <path id="パス_174" data-name="パス 174" class="cls-29" d="M619,414.894a.054.054,0,0,0,.05.05h1.957a.054.054,0,0,0,.05-.05V412.95a.054.054,0,0,0-.05-.05h-1.944a.054.054,0,0,0-.05.05v1.944Z" transform="translate(-619 -412.9)"/>
            </g>
            <g id="グループ化_19" data-name="グループ化 19" transform="translate(49.078 30.929)">
              <path id="パス_175" data-name="パス 175" class="cls-28" d="M961.2,544.626v-.063c0-.038.013-.088.013-.125a.731.731,0,0,1,.113-.314.8.8,0,0,1,.539-.376.845.845,0,0,1,.627.1,1.7,1.7,0,0,0,.176.138.775.775,0,0,1,.2.389v.013a1.391,1.391,0,0,1,.025.226H961.2Z" transform="translate(-960.723 -543.271)"/>
              <path id="パス_176" data-name="パス 176" class="cls-29" d="M967.325,547.3l-.025,1.1c0,.176.3.251.3.013" transform="translate(-966.058 -546.397)"/>
              <path id="パス_177" data-name="パス 177" class="cls-29" d="M957.4,542.7a.059.059,0,0,0,.063.063H960a.059.059,0,0,0,.063-.063v-2.534A.059.059,0,0,0,960,540.1h-2.534a.059.059,0,0,0-.063.063Z" transform="translate(-957.4 -540.1)"/>
            </g>
            <path id="パス_178" data-name="パス 178" class="cls-30" d="M0,0H2.446V4.315H0Z" transform="translate(47.434 21.759) rotate(180)"/>
            <path id="パス_179" data-name="パス 179" class="cls-30" d="M0,0H2.446V4.315H0Z" transform="translate(47.434 34.89) rotate(180)"/>
            <path id="パス_180" data-name="パス 180" class="cls-31" d="M654.5,293.5h21.535v17.446H654.5Z" transform="translate(-643.413 -293.5)"/>
            <path id="パス_181" data-name="パス 181" class="cls-27" d="M719.1,293.5h13.433v17.446H719.1Z" transform="translate(-699.91 -293.5)"/>
            <path id="パス_182" data-name="パス 182" class="cls-30" d="M0,0H2.446V4.315H0Z" transform="translate(27.229 4.319) rotate(180)"/>
            <path id="パス_183" data-name="パス 183" class="cls-30" d="M0,0H2.446V4.315H0Z" transform="translate(27.229 17.45) rotate(180)"/>
            <g id="グループ化_27" data-name="グループ化 27" transform="translate(19.842 1.179)">
              <path id="パス_184" data-name="パス 184" class="cls-29" d="M724.3,304.969a.054.054,0,0,0,.05.05h2.019a.054.054,0,0,0,.05-.05V302.95a.054.054,0,0,0-.05-.05H724.35a.054.054,0,0,0-.05.05Z" transform="translate(-724.3 -302.9)"/>
              <g id="グループ化_26" data-name="グループ化 26" transform="translate(0.615 0.426)">
                <g id="グループ化_22" data-name="グループ化 22" transform="translate(0.414)">
                  <g id="グループ化_21" data-name="グループ化 21">
                    <path id="パス_185" data-name="パス 185" class="cls-32" d="M734.7,310.027V309.4" transform="translate(-734.424 -309.011)"/>
                    <g id="グループ化_20" data-name="グループ化 20">
                      <path id="パス_186" data-name="パス 186" class="cls-28" d="M732.5,306.764l.276-.464.276.464Z" transform="translate(-732.5 -306.3)"/>
                    </g>
                  </g>
                </g>
                <g id="グループ化_25" data-name="グループ化 25">
                  <g id="グループ化_24" data-name="グループ化 24">
                    <path id="パス_187" data-name="パス 187" class="cls-32" d="M731.3,310.027V309.4" transform="translate(-731.037 -309.011)"/>
                    <g id="グループ化_23" data-name="グループ化 23">
                      <path id="パス_188" data-name="パス 188" class="cls-28" d="M729.2,306.764l.263-.464.276.464Z" transform="translate(-729.2 -306.3)"/>
                    </g>
                  </g>
                </g>
              </g>
              <path id="パス_189" data-name="パス 189" class="cls-29" d="M729.566,316.5H728.5" transform="translate(-727.973 -314.794)"/>
            </g>
            <path id="パス_190" data-name="パス 190" class="cls-29" d="M677,305.669a.054.054,0,0,0,.05.05h2.019a.054.054,0,0,0,.05-.05V303.65a.054.054,0,0,0-.05-.05H677.05a.054.054,0,0,0-.05.05Z" transform="translate(-663.091 -302.333)"/>
            <path id="パス_191" data-name="パス 191" class="cls-29" d="M816.6,443.369a.054.054,0,0,0,.05.05h2.019a.054.054,0,0,0,.05-.05V441.35a.054.054,0,0,0-.05-.05H816.65a.054.054,0,0,0-.05.05Z" transform="translate(-785.181 -422.762)"/>
            <path id="パス_192" data-name="パス 192" class="cls-31" d="M566.1,432.6h34.379v17.446H566.1Z" transform="translate(-566.1 -415.154)"/>
            <path id="パス_193" data-name="パス 193" class="cls-27" d="M669.2,432.6h21.447v17.446H669.2Z" transform="translate(-656.269 -415.154)"/>
            <path id="パス_194" data-name="パス 194" class="cls-33" d="M0,0H3.9V4.315H0Z" transform="translate(25.759 21.766) rotate(180)"/>
            <path id="パス_195" data-name="パス 195" class="cls-33" d="M0,0H3.9V4.315H0Z" transform="translate(25.759 34.897) rotate(180)"/>
            <g id="グループ化_35" data-name="グループ化 35" transform="translate(14.261 18.563)">
              <path id="パス_196" data-name="パス 196" class="cls-29" d="M679.8,444.259a.081.081,0,0,0,.075.075h2.684a.081.081,0,0,0,.075-.075v-2.684a.081.081,0,0,0-.075-.075h-2.684a.081.081,0,0,0-.075.075Z" transform="translate(-679.8 -441.5)"/>
              <g id="グループ化_34" data-name="グループ化 34" transform="translate(0.916 0.564)">
                <g id="グループ化_30" data-name="グループ化 30" transform="translate(0.564)">
                  <g id="グループ化_29" data-name="グループ化 29">
                    <path id="パス_197" data-name="パス 197" class="cls-32" d="M693.8,450.066V449.1" transform="translate(-693.524 -448.711)"/>
                    <g id="グループ化_28" data-name="グループ化 28">
                      <path id="パス_198" data-name="パス 198" class="cls-28" d="M691.6,446.477l.276-.477.263.477Z" transform="translate(-691.6 -446)"/>
                    </g>
                  </g>
                </g>
                <g id="グループ化_33" data-name="グループ化 33">
                  <g id="グループ化_32" data-name="グループ化 32">
                    <path id="パス_199" data-name="パス 199" class="cls-32" d="M689.2,450.066V449.1" transform="translate(-688.937 -448.711)"/>
                    <g id="グループ化_31" data-name="グループ化 31">
                      <path id="パス_200" data-name="パス 200" class="cls-28" d="M687.1,446.477l.263-.477.276.477Z" transform="translate(-687.1 -446)"/>
                    </g>
                  </g>
                </g>
              </g>
              <path id="パス_201" data-name="パス 201" class="cls-29" d="M686.917,459.5H685.5" transform="translate(-684.785 -457.242)"/>
            </g>
            <path id="パス_202" data-name="パス 202" class="cls-24" d="M572,426.2h31.883v.8H572Z" transform="translate(-571.26 -409.556)"/>
            <path id="パス_203" data-name="パス 203" class="cls-34" d="M586.614,452.328H593.5a.509.509,0,0,0,.514-.514h0a.509.509,0,0,0-.514-.514h-6.886a.509.509,0,0,0-.514.514h0A.525.525,0,0,0,586.614,452.328Z" transform="translate(-583.592 -431.508)"/>
          </g>
          <path id="パス_204" data-name="パス 204" class="cls-24" d="M767.166,323.1v13.734H758.7v-8.1h6.472V323.1Z" transform="translate(-734.544 -319.388)"/>
          <g id="グループ化_38" data-name="グループ化 38" transform="translate(25.009 3.286)">
            <path id="パス_205" data-name="パス 205" class="cls-25" d="M925.794,323.939h6.61L930.61,319.7H924Z" transform="translate(-904.12 -319.7)"/>
            <path id="パス_206" data-name="パス 206" class="cls-25" d="M837.1,319.7h17.484v14.2H837.1Z" transform="translate(-828.12 -319.7)"/>
            <path id="パス_207" data-name="パス 207" class="cls-35" d="M837.1,361.6h4.954v8.943H837.1Z" transform="translate(-828.12 -356.345)"/>
            <path id="パス_208" data-name="パス 208" class="cls-27" d="M889.6,319.7h10.9v14.2H889.6Z" transform="translate(-874.035 -319.7)"/>
            <g id="グループ化_37" data-name="グループ化 37" transform="translate(23.354 10.975)">
              <path id="パス_209" data-name="パス 209" class="cls-28" d="M954.8,410.8v-.05a.278.278,0,0,1,.012-.1.85.85,0,0,1,.088-.251.705.705,0,0,1,.439-.314.673.673,0,0,1,.514.088,1.316,1.316,0,0,1,.138.113.631.631,0,0,1,.163.314v.013a.477.477,0,0,1,.013.188H954.8Z" transform="translate(-954.411 -409.708)"/>
              <path id="パス_210" data-name="パス 210" class="cls-29" d="M959.813,413l-.013.9c0,.151.238.2.238.013" transform="translate(-958.784 -412.273)"/>
              <path id="パス_211" data-name="パス 211" class="cls-29" d="M951.7,409.307a.054.054,0,0,0,.05.05h2.057a.054.054,0,0,0,.05-.05V407.25a.054.054,0,0,0-.05-.05H951.75a.054.054,0,0,0-.05.05Z" transform="translate(-951.7 -407.2)"/>
            </g>
            <path id="パス_212" data-name="パス 212" class="cls-30" d="M0,0H1.994V3.5H0Z" transform="translate(22.006 14.186) rotate(180)"/>
            <path id="パス_213" data-name="パス 213" class="cls-27" d="M768.3,368h12.542v8.127H768.3Z" transform="translate(-767.949 -361.942)"/>
            <path id="パス_214" data-name="パス 214" class="cls-31" d="M768.3,368h5.017v8.127H768.3Z" transform="translate(-767.949 -361.942)"/>
            <path id="パス_215" data-name="パス 215" class="cls-24" d="M768.3,368h12.542v1.292H768.3Z" transform="translate(-767.949 -361.942)"/>
            <path id="パス_216" data-name="パス 216" class="cls-36" d="M765.5,358.4h13.245v1.906H765.5Z" transform="translate(-765.5 -353.546)"/>
            <path id="パス_217" data-name="パス 217" class="cls-37" d="M765.5,358.4h4.992v1.906H765.5Z" transform="translate(-765.5 -353.546)"/>
            <path id="パス_218" data-name="パス 218" class="cls-34" d="M778.422,383.728h-2.634a.284.284,0,0,1-.288-.289v-.251a.284.284,0,0,1,.288-.288h2.634a.284.284,0,0,1,.288.288v.251A.292.292,0,0,1,778.422,383.728Z" transform="translate(-774.246 -374.973)"/>
            <path id="パス_219" data-name="パス 219" class="cls-29" d="M856.641,383.016a.027.027,0,0,1-.025.025h-.991a.027.027,0,0,1-.025-.025v-.991a.027.027,0,0,1,.025-.025h.991a.027.027,0,0,1,.025.025Z" transform="translate(-844.299 -374.186)"/>
            <path id="パス_220" data-name="パス 220" class="cls-29" d="M896.506,328.256a.054.054,0,0,1-.05.05H894.65a.054.054,0,0,1-.05-.05V326.45a.054.054,0,0,1,.05-.05h1.806a.054.054,0,0,1,.05.05Z" transform="translate(-878.408 -325.56)"/>
            <path id="パス_221" data-name="パス 221" class="cls-38" d="M829.122,323.939H822.5l1.794-4.239h6.622Z" transform="translate(-815.351 -319.7)"/>
          </g>
        </g>
        <path id="パス_222" data-name="パス 222" class="cls-39" d="M593.969,301.577l4.754-5.305V293.5H577.187v5.744H566.1v29.148h6.472l13.985-17.434h1.192l7.438-7.35h-1.217Z" transform="translate(-552.542 -269.532)"/>
      </g>
      <g id="グループ化_55" data-name="グループ化 55" transform="translate(286.013 110.565)">
        <path id="パス_223" data-name="パス 223" class="cls-40" d="M351.4,799.3h2.383v4.678H351.4Z" transform="translate(-343.199 -720.058)"/>
        <path id="パス_224" data-name="パス 224" class="cls-40" d="M405.342,796.75l-1.442,4.515,2.069.589a11.435,11.435,0,0,0,1.505-4.641S405.882,796.161,405.342,796.75Z" transform="translate(-389.114 -717.671)"/>
        <path id="パス_225" data-name="パス 225" class="cls-41" d="M377.7,315.621s3.85-.539,5.519.163l-2.471,3.938Z" transform="translate(-366.2 -296.87)"/>
        <path id="パス_226" data-name="パス 226" class="cls-42" d="M469.156,451.3a4.775,4.775,0,0,1-.6.627c-3.048,2.634-8.09.59-8.09.59l-.226-.59L460,451.3Z" transform="translate(-438.178 -415.705)"/>
        <path id="パス_227" data-name="パス 227" class="cls-43" d="M469.156,451.3a4.775,4.775,0,0,1-.6.627h-8.316L460,451.3Z" transform="translate(-438.178 -415.705)"/>
        <path id="パス_228" data-name="パス 228" class="cls-40" d="M365.2,213.105l-.013,1.844-.038,5.481a3.246,3.246,0,0,1-2.258,3.073,3.3,3.3,0,0,1-1,.163.84.84,0,0,0-.84.84v4.866H358.29v-4.6a.98.98,0,0,0-.978-.978H357a3.1,3.1,0,0,1-3.1-3.1V211.5h9.7a1.6,1.6,0,0,1,1.292.665.751.751,0,0,1,.113.188h0c.013.025.038.063.05.088A1.479,1.479,0,0,1,365.2,213.105Z" transform="translate(-345.385 -205.981)"/>
        <path id="パス_229" data-name="パス 229" class="cls-44" d="M365.288,213.105l-.013,1.844H357.75a5.467,5.467,0,0,1-2.145-.439L354,213.833V211.5h9.7a1.6,1.6,0,0,1,1.292.665.748.748,0,0,1,.113.188h0c.013.025.038.063.05.088A1.658,1.658,0,0,1,365.288,213.105Z" transform="translate(-345.473 -205.981)"/>
        <path id="パス_230" data-name="パス 230" class="cls-45" d="M362.793,223.516a3.3,3.3,0,0,1-1,.163.84.84,0,0,0-.84.84v4.854H358.19v-4.6a.98.98,0,0,0-.978-.978H356.9a3.1,3.1,0,0,1-3.1-3.1V211.5h2.634v9.181a2.832,2.832,0,0,0,2.835,2.835Z" transform="translate(-345.298 -205.981)"/>
        <path id="パス_231" data-name="パス 231" class="cls-45" d="M391.659,321.6v3.888H388.9V321.4l1.58,2.182Z" transform="translate(-375.996 -302.097)"/>
        <path id="パス_232" data-name="パス 232" class="cls-46" d="M389.08,242.09a.79.79,0,1,1-.79-.79A.79.79,0,0,1,389.08,242.09Z" transform="translate(-374.771 -232.044)"/>
        <path id="パス_233" data-name="パス 233" class="cls-46" d="M428.28,242.09a.79.79,0,1,1-.79-.79A.79.79,0,0,1,428.28,242.09Z" transform="translate(-409.055 -232.044)"/>
        <path id="パス_234" data-name="パス 234" class="cls-47" d="M413.017,252.371a.245.245,0,0,1,.477-.05,5.411,5.411,0,0,0,.615,1.292c.414.5,0,1.041-.627.916C413.017,254.44,412.9,253.3,413.017,252.371Z" transform="translate(-397.052 -241.534)"/>
        <path id="パス_235" data-name="パス 235" class="cls-48" d="M428.329,242.264a.564.564,0,1,1-.564-.564A.564.564,0,0,1,428.329,242.264Z" transform="translate(-409.492 -232.394)"/>
        <path id="パス_236" data-name="パス 236" class="cls-48" d="M389.529,242.264a.564.564,0,1,1-.564-.564A.564.564,0,0,1,389.529,242.264Z" transform="translate(-375.558 -232.394)"/>
        <path id="パス_237" data-name="パス 237" class="cls-49" d="M308.3,320.6v24.169a35.186,35.186,0,0,1-7.939.79h-.088a34.355,34.355,0,0,1-6.346-.627c-.539-.113-1.091-.226-1.643-.376V325.541c-.753,4.264-1.192,8.968-3.549,8.729a.629.629,0,0,1-.151-.025,3.313,3.313,0,0,1-1.066-.439c-4.791-2.973,3.236-12.467,5.1-14.562h0c.075-.088.138-.151.188-.213a2.414,2.414,0,0,1,.176-.188h0a2.392,2.392,0,0,1,.941-.564,3.533,3.533,0,0,1,.389-.088,2.444,2.444,0,0,1,.314-.025h2.508a11.49,11.49,0,0,1,.376-1.166s2.672,2.17,3.048,4.089h0l.013-.025c0-.013,0-.013.013-.025.151-.389,1.242-3.148,2.446-3.888l.251.966h2.546A2.486,2.486,0,0,1,308.3,320.6Z" transform="translate(-286.013 -298.249)"/>
        <path id="パス_238" data-name="パス 238" class="cls-50" d="M351.4,338.154v14.474a34.864,34.864,0,0,1-7.425.79h-.088a33.54,33.54,0,0,1-7.99-1V338.781c6.071-.2,2.672-10.874,2.032-12.718a2.45,2.45,0,0,1,.314-.025h1.192a15.162,15.162,0,0,1,1.631,7.111h7.187s.84-2.471-1.38-7.149h.878c1.63.125,2.132,8.065,2.17,10.322C349.972,337.727,350.788,338.078,351.4,338.154Z" transform="translate(-329.643 -306.12)"/>
        <path id="パス_239" data-name="パス 239" class="cls-51" d="M342.4,534.3h4.427v33.952H342.4Z" transform="translate(-335.328 -488.295)"/>
        <path id="パス_240" data-name="パス 240" class="cls-52" d="M342.4,534.3h4.427v2.483a39.216,39.216,0,0,1-4.427-.752Z" transform="translate(-335.328 -488.295)"/>
        <path id="パス_241" data-name="パス 241" class="cls-52" d="M342.4,534.3h1.806v33.952H342.4Z" transform="translate(-335.328 -488.295)"/>
        <path id="パス_242" data-name="パス 242" class="cls-53" d="M408.1,566.213l-2.182-1.041-2.019-.966c4.126-5.87,3.123-25.235,2.784-30.3-.05-.778-.088-1.229-.088-1.229a2.561,2.561,0,0,1,2.947-1.656,5.018,5.018,0,0,1,1.869.853c.013.263.025.527.038.778C412.617,562.048,408.1,566.213,408.1,566.213Z" transform="translate(-389.114 -485.377)"/>
        <path id="パス_243" data-name="パス 243" class="cls-51" d="M422.182,566.681,420,565.64c3.738-6.76,2.784-26.163,2.446-31.343-.05-.828-.088-1.292-.088-1.292a3.256,3.256,0,0,1,1.267-1.505,5.018,5.018,0,0,1,1.869.853c.013.263.025.527.038.778C426.7,562.517,422.182,566.681,422.182,566.681Z" transform="translate(-403.195 -485.846)"/>
        <path id="パス_244" data-name="パス 244" class="cls-52" d="M430.241,532.68a16.108,16.108,0,0,1-4.754,1.242c-.05-.778-.088-1.229-.088-1.229,1.631-3.3,4.8-.8,4.8-.8Q430.223,532.3,430.241,532.68Z" transform="translate(-407.918 -485.396)"/>
        <path id="パス_245" data-name="パス 245" class="cls-54" d="M403.682,825s-.376,2.094-2.358.753c0,0-.64-.539-.79.966s0,1.718,0,1.718h11.827s.79-1.844-4.3-1.505S403.682,825,403.682,825Z" transform="translate(-386.112 -742.534)"/>
        <path id="パス_246" data-name="パス 246" class="cls-55" d="M400.5,852.3h11.928v.715H400.5Z" transform="translate(-386.141 -766.41)"/>
        <path id="パス_247" data-name="パス 247" class="cls-56" d="M352.017,338.154v14.474a36.859,36.859,0,0,1-13.006.4,29.815,29.815,0,0,1-3.01-.615V338.768a3.45,3.45,0,0,0,3.01-1.066c2.421-2.809.038-10.209-.464-11.664h1.505a15.162,15.162,0,0,1,1.63,7.111h7.187s.84-2.471-1.38-7.149h.878c1.631.125,2.132,8.065,2.17,10.322A1.633,1.633,0,0,0,352.017,338.154Z" transform="translate(-329.73 -306.12)"/>
        <path id="パス_248" data-name="パス 248" class="cls-57" d="M360,347.3h11.163v13.044H360Z" transform="translate(-350.72 -324.749)"/>
        <path id="パス_249" data-name="パス 249" class="cls-48" d="M364.887,212.165c-.577-.539-2.935-.426-2.935-.426s-6.572-.665-6.572,3.173-1.48,3.675-1.48,3.675V211.5h9.7A1.58,1.58,0,0,1,364.887,212.165Z" transform="translate(-345.385 -205.981)"/>
        <path id="パス_250" data-name="パス 250" class="cls-58" d="M395.7,273.3s.3.339.715.727h0a3.4,3.4,0,0,0,1.819,1.016,1.428,1.428,0,0,0,.978-.514,5.163,5.163,0,0,0,.815-1.229s-.2.05-.577.113a11.959,11.959,0,0,1-2.835.013C396.327,273.388,396.026,273.35,395.7,273.3Z" transform="translate(-381.943 -260.03)"/>
        <path id="パス_251" data-name="パス 251" class="cls-18" d="M403,274.213v.1a.278.278,0,0,0,.276.276h2.3a.278.278,0,0,0,.276-.276V274.2A12.088,12.088,0,0,1,403,274.213Z" transform="translate(-388.327 -260.817)"/>
        <path id="パス_252" data-name="パス 252" class="cls-59" d="M401.5,279.016a3.4,3.4,0,0,0,1.819,1.016,1.429,1.429,0,0,0,.978-.514C403.971,279.229,403.218,278.94,401.5,279.016Z" transform="translate(-387.015 -265.018)"/>
        <g id="グループ化_42" data-name="グループ化 42" transform="translate(15.15 14.662)">
          <g id="グループ化_41" data-name="グループ化 41">
            <path id="パス_253" data-name="パス 253" class="cls-46" d="M406.8,284.55a1.558,1.558,0,0,0,.5.489c.05.025.113.05.163.075l.176.05c.063.013.125.013.188.025h.188a1.4,1.4,0,0,0,.677-.263c.1-.075.176-.163.263-.238.075-.1.151-.188.213-.276l-.013-.013-.238.238a2.221,2.221,0,0,1-.276.2,1.459,1.459,0,0,1-.627.226,1.175,1.175,0,0,1-.652-.125,1.749,1.749,0,0,1-.564-.389Z" transform="translate(-406.8 -284.4)"/>
          </g>
        </g>
        <g id="グループ化_43" data-name="グループ化 43" transform="translate(11.951 7.107)">
          <path id="パス_254" data-name="パス 254" class="cls-41" d="M381.3,225.247a1.919,1.919,0,0,1,.564-.7,1.742,1.742,0,0,1,.878-.376,1.464,1.464,0,0,1,.514.05,1.352,1.352,0,0,1,.439.238,1.487,1.487,0,0,1,.477.79,4.156,4.156,0,0,0-.69-.464,1.318,1.318,0,0,0-.69-.113,2.385,2.385,0,0,0-.727.213A8.2,8.2,0,0,0,381.3,225.247Z" transform="translate(-381.3 -224.164)"/>
        </g>
        <g id="グループ化_44" data-name="グループ化 44" transform="translate(17.043 7.209)">
          <path id="パス_255" data-name="パス 255" class="cls-41" d="M421.9,226.033a1.4,1.4,0,0,1,.376-.677,1.2,1.2,0,0,1,.753-.376,1.041,1.041,0,0,1,.815.314,1.294,1.294,0,0,1,.351.7,5.905,5.905,0,0,0-.589-.389.932.932,0,0,0-.527-.125,1.445,1.445,0,0,0-.552.188C422.326,225.77,422.126,225.9,421.9,226.033Z" transform="translate(-421.9 -224.977)"/>
        </g>
        <path id="パス_256" data-name="パス 256" class="cls-60" d="M363.878,173.395H351.9a5.99,5.99,0,0,1,11.978,0Z" transform="translate(-343.636 -167.5)"/>
        <path id="パス_257" data-name="パス 257" class="cls-61" d="M404.809,319.266l-.213,2.7a.17.17,0,0,1-.314.075c-1.141-1.831-2.032-.151-2.182.15.151-.389,1.242-3.148,2.446-3.888Z" transform="translate(-387.54 -299.386)"/>
        <path id="パス_258" data-name="パス 258" class="cls-61" d="M378.124,321c-.025-.088-.64-1.994-2.12-.226a.323.323,0,0,1-.564-.125l-.74-2.584a11.488,11.488,0,0,1,.376-1.166C375.076,316.913,377.748,319.082,378.124,321Z" transform="translate(-363.577 -298.162)"/>
        <path id="パス_259" data-name="パス 259" class="cls-62" d="M349.031,236.761a.478.478,0,0,0-.665-.439,1.521,1.521,0,0,0-.966,1.38,1.544,1.544,0,0,0,.941,1.38.5.5,0,0,0,.69-.452Z" transform="translate(-339.701 -227.655)"/>
        <path id="パス_260" data-name="パス 260" class="cls-18" d="M389.5,242.451a.251.251,0,1,1-.251-.251A.251.251,0,0,1,389.5,242.451Z" transform="translate(-376.083 -232.831)"/>
        <path id="パス_261" data-name="パス 261" class="cls-18" d="M428.7,242.451a.251.251,0,1,1-.251-.251A.251.251,0,0,1,428.7,242.451Z" transform="translate(-410.366 -232.831)"/>
        <path id="パス_262" data-name="パス 262" class="cls-63" d="M357.8,167.5s-2.709.075-3.06,5.895H351.8A5.942,5.942,0,0,1,357.8,167.5Z" transform="translate(-343.549 -167.5)"/>
        <path id="パス_263" data-name="パス 263" class="cls-47" d="M381.7,209.518a10.684,10.684,0,0,0-6.535.339,3.409,3.409,0,0,1-2.672-.1l-4.189-1.994s.514-.176,1.329-.376c2.019-.5,5.895-1.166,8.479.326.063.038.138.075.213.113l2.095.966,1.192.552C381.846,209.556,381.7,209.518,381.7,209.518Z" transform="translate(-357.979 -201.867)"/>
        <path id="パス_264" data-name="パス 264" class="cls-64" d="M389.774,208.778a10.517,10.517,0,0,0-5.08.414,3.42,3.42,0,0,1-2.672-.213L379,207.386c2.019-.5,5.895-1.166,8.479.326.063.038.138.075.213.113Z" transform="translate(-367.337 -201.867)"/>
        <path id="パス_265" data-name="パス 265" class="cls-42" d="M341.7,331.6Z" transform="translate(-334.716 -311.018)"/>
        <path id="パス_266" data-name="パス 266" class="cls-50" d="M293.946,327.2v26.652c-.539-.113-1.091-.226-1.643-.376V334.462c-.753,4.264-1.192,8.968-3.549,8.729a2.962,2.962,0,0,1-1.217-.464c-4.979-3.085,3.913-13.245,5.293-14.775a2.414,2.414,0,0,1,.176-.188h0A2.422,2.422,0,0,1,293.946,327.2Z" transform="translate(-286.034 -307.17)"/>
        <path id="パス_267" data-name="パス 267" class="cls-50" d="M288.583,349.9a3.314,3.314,0,0,1-1.066-.439c-4.791-2.973,3.236-12.467,5.1-14.562C292.446,335.163,285.472,345.022,288.583,349.9Z" transform="translate(-286.013 -313.904)"/>
        <path id="パス_268" data-name="パス 268" class="cls-40" d="M312.231,430.433a4.207,4.207,0,0,1-.326.627c-2.747,4.352-11.853,1.618-16.1.289a7.435,7.435,0,0,1-2.283-1.091,2.582,2.582,0,0,1-.778-.9,1.343,1.343,0,0,1,1.016-1.881,4.406,4.406,0,0,1,2.145.3,8.872,8.872,0,0,1,1.618.815,15.815,15.815,0,0,0,5.77,1.442A78.155,78.155,0,0,0,312.231,430.433Z" transform="translate(-291.789 -394.838)"/>
        <path id="パス_269" data-name="パス 269" class="cls-43" d="M380.3,448.589a4.213,4.213,0,0,1-.326.627h-9.281a.24.24,0,0,1-.138-.439l.8-.577A79.9,79.9,0,0,0,380.3,448.589Z" transform="translate(-359.854 -412.994)"/>
        <path id="パス_270" data-name="パス 270" class="cls-45" d="M296,427.859s-2.471-.564-2.383,2.483h0a2.583,2.583,0,0,1-.778-.9,1.343,1.343,0,0,1,1.016-1.881A4.272,4.272,0,0,1,296,427.859Z" transform="translate(-291.876 -394.911)"/>
        <g id="グループ化_54" data-name="グループ化 54" transform="translate(10.07 20.557)">
          <path id="パス_271" data-name="パス 271" class="cls-29" d="M557.6,357.443a.033.033,0,0,0,.038.038h1.493a.033.033,0,0,0,.038-.038v-1.505a.033.033,0,0,0-.038-.038h-1.493a.033.033,0,0,0-.038.038Z" transform="translate(-533.607 -352.827)"/>
          <path id="パス_272" data-name="パス 272" class="cls-31" d="M371.6,349.5h25.524v12.956H371.6Z" transform="translate(-370.935 -347.23)"/>
          <path id="パス_273" data-name="パス 273" class="cls-27" d="M448.2,349.5h15.916v12.956H448.2Z" transform="translate(-437.928 -347.23)"/>
          <path id="パス_274" data-name="パス 274" class="cls-33" d="M0,0H2.9V3.2H0Z" transform="translate(19.797 5.472) rotate(180)"/>
          <path id="パス_275" data-name="パス 275" class="cls-33" d="M0,0H2.9V3.2H0Z" transform="translate(19.797 15.226) rotate(180)"/>
          <g id="グループ化_52" data-name="グループ化 52" transform="translate(11.263 3.098)">
            <path id="パス_276" data-name="パス 276" class="cls-29" d="M456.1,358.144a.054.054,0,0,0,.05.05h1.994a.054.054,0,0,0,.05-.05V356.15a.054.054,0,0,0-.05-.05H456.15a.054.054,0,0,0-.05.05Z" transform="translate(-456.1 -356.1)"/>
            <g id="グループ化_51" data-name="グループ化 51" transform="translate(0.665 0.414)">
              <g id="グループ化_47" data-name="グループ化 47" transform="translate(0.426)">
                <g id="グループ化_46" data-name="グループ化 46">
                  <path id="パス_277" data-name="パス 277" class="cls-32" d="M466.4,362.415V361.7" transform="translate(-466.199 -361.412)"/>
                  <g id="グループ化_45" data-name="グループ化 45">
                    <path id="パス_278" data-name="パス 278" class="cls-28" d="M464.8,359.751l.2-.351.2.351Z" transform="translate(-464.8 -359.4)"/>
                  </g>
                </g>
              </g>
              <g id="グループ化_50" data-name="グループ化 50">
                <g id="グループ化_49" data-name="グループ化 49">
                  <path id="パス_279" data-name="パス 279" class="cls-32" d="M463,362.415V361.7" transform="translate(-462.799 -361.412)"/>
                  <g id="グループ化_48" data-name="グループ化 48">
                    <path id="パス_280" data-name="パス 280" class="cls-28" d="M461.4,359.751l.2-.351.213.351Z" transform="translate(-461.4 -359.4)"/>
                  </g>
                </g>
              </g>
            </g>
            <path id="パス_281" data-name="パス 281" class="cls-29" d="M461.341,369.5H460.3" transform="translate(-459.773 -367.819)"/>
          </g>
          <path id="パス_282" data-name="パス 282" class="cls-34" d="M386.876,364.253h5.117a.377.377,0,0,0,.376-.376h0a.377.377,0,0,0-.376-.376h-5.117a.377.377,0,0,0-.376.376h0A.386.386,0,0,0,386.876,364.253Z" transform="translate(-383.966 -359.474)"/>
          <g id="グループ化_53" data-name="グループ化 53" transform="translate(22.388 3.173)">
            <path id="パス_283" data-name="パス 283" class="cls-65" d="M554.3,374.1v-.238a1.314,1.314,0,0,0,.376-.063l.088.226A1.166,1.166,0,0,1,554.3,374.1Z" transform="translate(-553.108 -371.655)"/>
            <path id="パス_284" data-name="パス 284" class="cls-65" d="M548.1,372.576l.151-.176a.959.959,0,0,0,.326.188l-.075.226A1.007,1.007,0,0,1,548.1,372.576Z" transform="translate(-547.686 -370.431)"/>
            <path id="パス_285" data-name="パス 285" class="cls-65" d="M544.9,367.738l.238-.038a.989.989,0,0,0,.138.364l-.2.125A.92.92,0,0,1,544.9,367.738Z" transform="translate(-544.887 -366.32)"/>
            <path id="パス_286" data-name="パス 286" class="cls-65" d="M559.864,359.164l-.213.113a.929.929,0,0,0-.251-.288l.151-.188A1.241,1.241,0,0,1,559.864,359.164Z" transform="translate(-557.569 -358.537)"/>
            <path id="パス_287" data-name="パス 287" class="cls-65" d="M562.438,364.889l-.238-.05a1.011,1.011,0,0,0,0-.389l.238-.05A1.593,1.593,0,0,1,562.438,364.889Z" transform="translate(-560.018 -363.434)"/>
            <path id="パス_288" data-name="パス 288" class="cls-65" d="M559.651,370.677l-.151-.188a.927.927,0,0,0,.251-.288l.213.113A1.5,1.5,0,0,1,559.651,370.677Z" transform="translate(-557.656 -368.507)"/>
            <path id="パス_289" data-name="パス 289" class="cls-65" d="M544.963,361.4l.2.125a.9.9,0,0,0-.125.364l-.238-.038A1.389,1.389,0,0,1,544.963,361.4Z" transform="translate(-544.8 -360.811)"/>
            <path id="パス_290" data-name="パス 290" class="cls-65" d="M548.5,357.2l.075.226a.929.929,0,0,0-.326.188l-.151-.176A1.176,1.176,0,0,1,548.5,357.2Z" transform="translate(-547.686 -357.137)"/>
            <path id="パス_291" data-name="パス 291" class="cls-65" d="M554.764,356.775l-.088.226a.989.989,0,0,0-.376-.063V356.7A1.5,1.5,0,0,1,554.764,356.775Z" transform="translate(-553.108 -356.7)"/>
          </g>
          <path id="パス_292" data-name="パス 292" class="cls-66" d="M366.3,331.4h26.853v2.27H366.3Z" transform="translate(-366.3 -331.4)"/>
          <path id="パス_293" data-name="パス 293" class="cls-22" d="M440,331.4h17.609v2.27H440Z" transform="translate(-430.756 -331.4)"/>
          <path id="パス_294" data-name="パス 294" class="cls-67" d="M371.6,349.5h25.524v.414H371.6Z" transform="translate(-370.935 -347.23)"/>
        </g>
        <path id="パス_295" data-name="パス 295" class="cls-49" d="M341.8,852.3h13.333v.715H341.8Z" transform="translate(-334.803 -766.41)"/>
        <path id="パス_296" data-name="パス 296" class="cls-60" d="M345.407,825s-.414,2.094-2.634.753c0,0-.715-.539-.878.966s0,1.718,0,1.718H355.1s.878-1.844-4.8-1.505S345.407,825,345.407,825Z" transform="translate(-334.822 -742.534)"/>
      </g>
    </g>
  </g>
</svg>
