<svg xmlns="http://www.w3.org/2000/svg" viewBox="0 0 140.632 100">
  <defs>
    <style>
      .cls-1 {
        fill: #9ae6f7;
      }

      .cls-1, .cls-10, .cls-11, .cls-12, .cls-13, .cls-14, .cls-15, .cls-16, .cls-17, .cls-18, .cls-2, .cls-20, .cls-3, .cls-4, .cls-5, .cls-6, .cls-7, .cls-8, .cls-9 {
        fill-rule: evenodd;
      }

      .cls-2 {
        fill: #bbd98e;
      }

      .cls-3 {
        fill: #54855a;
      }

      .cls-4 {
        fill: #a0acb6;
      }

      .cls-5 {
        fill: #dadde0;
      }

      .cls-6 {
        fill: #d3d5d7;
      }

      .cls-7 {
        fill: #78838d;
      }

      .cls-8 {
        fill: #f5f4f4;
      }

      .cls-9 {
        fill: #dbdcdc;
      }

      .cls-10 {
        fill: #9e9e9f;
      }

      .cls-11 {
        fill: #f7b84a;
      }

      .cls-12 {
        fill: #fbce53;
      }

      .cls-13 {
        fill: #e6a334;
      }

      .cls-14, .cls-19 {
        fill: #fac42f;
      }

      .cls-15 {
        fill: #fcde94;
      }

      .cls-16 {
        fill: #c17842;
      }

      .cls-17, .cls-18 {
        fill: #824319;
      }

      .cls-17 {
        opacity: 0.23;
      }

      .cls-20 {
        fill: #fff;
      }
    </style>
  </defs>
  <g id="グループ化_89" data-name="グループ化 89" transform="translate(-569.7 -1000)">
    <g id="Untitled_1_" data-name="Untitled (1)" transform="translate(479 824)">
      <path id="パス_298" data-name="パス 298" class="cls-1" d="M229.3,855.514c0,6.966-31.027,12.614-69.3,12.614s-69.3-5.647-69.3-12.614S121.727,842.9,160,842.9,229.3,848.547,229.3,855.514Z" transform="translate(0 -592.127)"/>
      <g id="グループ化_56" data-name="グループ化 56" transform="translate(93.088 176)">
        <path id="パス_299" data-name="パス 299" class="cls-1" d="M179.9,196.8H164.282a5.14,5.14,0,0,1-3.655-4.922h0a5.137,5.137,0,0,1,4.4-5.09H168.8a5.388,5.388,0,0,0,5.393-5.393h0A5.388,5.388,0,0,0,168.8,176H129.278a5.388,5.388,0,0,0-5.393,5.393h0a5.388,5.388,0,0,0,5.393,5.393H133.1a5.146,5.146,0,0,1,4.4,5.09h0a5.14,5.14,0,0,1-3.655,4.922H123.313a5.388,5.388,0,0,0-5.393,5.393h0a5.388,5.388,0,0,0,5.393,5.393h9.575a3.7,3.7,0,0,1,1.446,2.926,3.659,3.659,0,0,1-1.032,2.556H117.079a2.68,2.68,0,0,0,0,5.359h2a2.921,2.921,0,0,1,2,2.769,2.88,2.88,0,0,1-.852,2.052h-2.825A5.155,5.155,0,0,0,112,228.136h0a5.155,5.155,0,0,0,5.393,4.888h4.586a3.606,3.606,0,0,1-.157,6.111h-2.388a4.479,4.479,0,0,0-4.474,4.474h0a4.479,4.479,0,0,0,4.474,4.474h46.945a4.479,4.479,0,0,0,4.474-4.474h0a4.479,4.479,0,0,0-4.474-4.474H156a3.606,3.606,0,0,1-.157-6.111h18.13a5.155,5.155,0,0,0,5.393-4.888h0a5.155,5.155,0,0,0-5.393-4.888H145.042a2.9,2.9,0,0,1-.852-2.052,2.932,2.932,0,0,1,2-2.769h31.068a2.68,2.68,0,1,0,0-5.359H164.685a3.683,3.683,0,0,1,.415-5.483h14.811a5.388,5.388,0,0,0,5.393-5.393h0A5.4,5.4,0,0,0,179.9,196.8Z" transform="translate(-112 -176)"/>
      </g>
      <path id="パス_300" data-name="パス 300" class="cls-1" d="M621.6,233.767h19.554a4.962,4.962,0,0,1,3.521,4.754h0a4.956,4.956,0,0,1-4.238,4.911h-3.655a5.206,5.206,0,0,0-5.2,5.2h0a5.206,5.206,0,0,0,5.2,5.2H685.87a5.206,5.206,0,0,0,5.2-5.2h0a5.206,5.206,0,0,0-5.2-5.2H671.26a4.965,4.965,0,0,1-4.238-4.911h0a4.962,4.962,0,0,1,3.521-4.754H680.7a5.206,5.206,0,0,0,5.2-5.2h0a5.206,5.206,0,0,0-5.2-5.2h-9.239a3.558,3.558,0,0,1-.392-5.292h15.652a2.579,2.579,0,1,0,0-5.158h-1.928a2.812,2.812,0,0,1-1.11-4.653h2.725a4.985,4.985,0,0,0,5.2-4.72h0a4.977,4.977,0,0,0-5.2-4.72h-4.429a3.473,3.473,0,0,1,.146-5.886h2.31a4.311,4.311,0,0,0,4.317-4.317h0a4.311,4.311,0,0,0-4.317-4.317h-55.3a4.311,4.311,0,0,0-4.317,4.317h0a4.311,4.311,0,0,0,4.317,4.317h11.728a3.542,3.542,0,0,1,1.7,2.994,3.507,3.507,0,0,1-1.558,2.893H635.3a4.985,4.985,0,0,0-5.2,4.72h0a4.977,4.977,0,0,0,5.2,4.72h24.42a2.812,2.812,0,0,1-1.11,4.653H626.222a2.579,2.579,0,1,0,0,5.158h14.553a3.558,3.558,0,0,1-.392,5.292H621.6a5.206,5.206,0,0,0-5.2,5.2h0A5.206,5.206,0,0,0,621.6,233.767Z" transform="translate(-466.758 -7.369)"/>
      <path id="パス_301" data-name="パス 301" class="cls-2" d="M491.421,854.539l11-5.875L479.077,844c-1.357.729-9.732,5.146-10.977,5.886Z" transform="translate(-335.086 -593.104)"/>
      <path id="パス_302" data-name="パス 302" class="cls-3" d="M479.6,853.646l22.054,4.4,9.609-5.135L489.22,848.5Z" transform="translate(-345.297 -597.099)"/>
      <path id="パス_303" data-name="パス 303" class="cls-2" d="M602.5,879.517l6.772,1.368a6.121,6.121,0,0,1,3.543-.706l4.238-2.265c-.919-.235-.785-.751.314-1.357l-6.851-1.357c-.1.235.034.146-.179.538-.561,1.065-2.6,2.287-5.124,3.094A22.492,22.492,0,0,1,602.5,879.517Z" transform="translate(-454.417 -620.806)"/>
      <path id="パス_304" data-name="パス 304" class="cls-2" d="M511.74,857.206l-4.036,2.141c-.123.135-.078.056.034.146.135.1.426.1.392.437-.034.314-.471.493-.83.863l6.738,1.357.112-.28c.1-.975,2.534-2.467,5.27-3.364.4-.135,1.043-.3,1.368-.37l1.357-.28-6.772-1.357a15.96,15.96,0,0,1-1.872.628A8.338,8.338,0,0,1,511.74,857.206Z" transform="translate(-369.891 -604.202)"/>
      <path id="パス_305" data-name="パス 305" class="cls-2" d="M598.957,877.748a3.642,3.642,0,0,0-2.052.359c-1.906.919.774,1.043-.8,1.615-.572.213-1.536.123-.628-.415l-.762-.135c-.807.471-.9.762-.258.953l-.561.314.37.09.605-.325c1.5.146,3.139-.673,2.736-1.211-.146-.2-.706-.37-.056-.7a1.233,1.233,0,0,1,1-.135c.168.067.045.191-.045.28l-.168.168.661.135c.426-.235.617-.348.673-.561.034-.146-.022-.258-.3-.348l.65-.359-.4-.078Z" transform="translate(-446.781 -622.759)"/>
      <path id="パス_306" data-name="パス 306" class="cls-3" d="M668.043,896.432c-1.805-.135-4.1,1.357-2.254,1.491C667.5,898.035,669.792,896.567,668.043,896.432Z" transform="translate(-510.004 -639.65)"/>
      <path id="パス_307" data-name="パス 307" class="cls-3" d="M547.838,872.549c-1.85-.2-4.081,1.256-2.444,1.458S549.452,872.717,547.838,872.549Z" transform="translate(-403.208 -618.434)"/>
      <path id="パス_308" data-name="パス 308" class="cls-2" d="M949.587,912.341,938.7,907.027l23.119-4.227c1.334.661,9.642,4.664,10.864,5.326Z" transform="translate(-752.922 -645.311)"/>
      <path id="パス_309" data-name="パス 309" class="cls-3" d="M982.06,911.553l-21.852,3.98-9.508-4.642,21.83-3.992Z" transform="translate(-763.577 -648.951)"/>
      <path id="パス_310" data-name="パス 310" class="cls-2" d="M992.021,935l-6.7,1.245a6.5,6.5,0,0,0-3.509-.639l-4.193-2.052c.908-.213.774-.684-.314-1.222l6.783-1.233c.1.213-.034.123.179.493.561.964,2.579,2.074,5.068,2.8A26.469,26.469,0,0,0,992.021,935Z" transform="translate(-787.194 -670.438)"/>
      <path id="パス_311" data-name="パス 311" class="cls-2" d="M1082.015,914.562l4,1.94c.123.123.078.056-.034.135-.135.09-.426.09-.392.392s.471.448.818.774l-6.671,1.222-.112-.258c-.1-.886-2.511-2.242-5.225-3.05-.4-.123-1.031-.269-1.357-.336l-1.345-.247,6.7-1.233a15.639,15.639,0,0,0,1.861.561A7.145,7.145,0,0,0,1082.015,914.562Z" transform="translate(-871.01 -655.167)"/>
      <path id="パス_312" data-name="パス 312" class="cls-2" d="M1064.243,933.225a4,4,0,0,1,2.041.325c1.895.83-.762.942.785,1.469.572.191,1.514.112.628-.381l.751-.123c.807.426.9.684.258.863l.561.292-.359.078-.594-.292c-1.491.135-3.106-.605-2.713-1.1.146-.179.7-.336.056-.628a1.373,1.373,0,0,0-1-.123c-.157.067-.045.168.045.247l.168.146-.661.123c-.415-.213-.617-.314-.661-.5-.034-.135.022-.235.3-.314l-.65-.325.392-.078Z" transform="translate(-863.463 -672.036)"/>
      <path id="パス_313" data-name="パス 313" class="cls-3" d="M1015.756,950.237c1.794-.123,4.059,1.233,2.231,1.345C1016.283,951.695,1014.018,950.361,1015.756,950.237Z" transform="translate(-820.784 -687.423)"/>
      <path id="パス_314" data-name="パス 314" class="cls-3" d="M1134.987,928.567c1.828-.179,4.047,1.132,2.422,1.312C1135.76,930.069,1133.383,928.735,1134.987,928.567Z" transform="translate(-926.729 -668.174)"/>
      <path id="パス_315" data-name="パス 315" class="cls-2" d="M858.387,865.641,847.5,860.327l23.119-4.227c1.334.661,9.642,4.664,10.865,5.326Z" transform="translate(-671.948 -603.847)"/>
      <path id="パス_316" data-name="パス 316" class="cls-3" d="M890.949,864.953l-21.841,3.98L859.6,864.28l21.83-3.98Z" transform="translate(-682.691 -607.576)"/>
      <path id="パス_317" data-name="パス 317" class="cls-2" d="M900.921,888.391l-6.7,1.245a6.5,6.5,0,0,0-3.509-.639l-4.193-2.041c.908-.213.774-.684-.314-1.222l6.783-1.233c.1.213-.034.123.179.493.561.964,2.579,2.074,5.068,2.8A25.15,25.15,0,0,0,900.921,888.391Z" transform="translate(-706.309 -629.063)"/>
      <path id="パス_318" data-name="パス 318" class="cls-2" d="M990.815,867.962l4,1.94c.123.123.078.056-.034.135-.135.09-.426.09-.392.392s.471.448.818.774l-6.671,1.222-.112-.258c-.1-.886-2.511-2.242-5.225-3.05-.4-.123-1.031-.269-1.357-.336l-1.345-.247,6.7-1.233a15.646,15.646,0,0,0,1.861.561A7.81,7.81,0,0,0,990.815,867.962Z" transform="translate(-790.036 -613.791)"/>
      <path id="パス_319" data-name="パス 319" class="cls-2" d="M973.043,886.625a4,4,0,0,1,2.041.325c1.895.83-.762.942.785,1.469.572.191,1.514.112.628-.381l.751-.123c.807.426.9.684.258.863l.561.292-.359.078-.594-.292c-1.491.135-3.106-.605-2.713-1.1.146-.179.7-.336.056-.628a1.373,1.373,0,0,0-1-.123c-.157.067-.045.168.045.247l.168.146-.661.123c-.415-.213-.617-.314-.661-.5-.034-.135.022-.235.3-.314l-.65-.325.392-.078Z" transform="translate(-782.489 -630.661)"/>
      <path id="パス_320" data-name="パス 320" class="cls-3" d="M924.606,903.637c1.794-.123,4.059,1.233,2.231,1.345C925.145,905.095,922.88,903.761,924.606,903.637Z" transform="translate(-739.86 -646.047)"/>
      <path id="パス_321" data-name="パス 321" class="cls-3" d="M1043.85,881.967c1.828-.179,4.048,1.132,2.422,1.312C1044.624,883.469,1042.236,882.124,1043.85,881.967Z" transform="translate(-845.807 -626.799)"/>
      <path id="パス_322" data-name="パス 322" class="cls-2" d="M746.587,950.741,735.7,945.427l23.119-4.227c1.334.661,9.642,4.664,10.864,5.326Z" transform="translate(-572.683 -679.406)"/>
      <path id="パス_323" data-name="パス 323" class="cls-3" d="M779.049,949.953l-21.841,3.98-9.508-4.642,21.83-3.992Z" transform="translate(-583.337 -683.046)"/>
      <path id="パス_324" data-name="パス 324" class="cls-2" d="M789.021,973.4l-6.7,1.245a6.5,6.5,0,0,0-3.509-.639l-4.193-2.052c.908-.213.774-.684-.314-1.222l6.783-1.233c.1.213-.034.123.179.493.561.964,2.579,2.074,5.068,2.8A23.164,23.164,0,0,0,789.021,973.4Z" transform="translate(-606.955 -704.533)"/>
      <path id="パス_325" data-name="パス 325" class="cls-2" d="M879.015,953.062l4,1.94c.123.123.078.056-.034.135-.135.09-.426.09-.392.392s.471.448.818.774l-6.671,1.222-.112-.258c-.1-.886-2.511-2.242-5.225-3.05-.4-.123-1.031-.269-1.357-.336l-1.345-.247,6.7-1.233a15.646,15.646,0,0,0,1.861.561A7.754,7.754,0,0,0,879.015,953.062Z" transform="translate(-690.771 -689.35)"/>
      <path id="パス_326" data-name="パス 326" class="cls-2" d="M861.243,971.725a4,4,0,0,1,2.041.325c1.895.83-.762.942.785,1.469.572.191,1.514.112.628-.381l.751-.123c.807.426.9.684.258.863l.561.292-.359.078-.594-.292c-1.491.135-3.106-.605-2.713-1.1.146-.179.7-.336.056-.628a1.372,1.372,0,0,0-1-.123c-.157.067-.045.168.045.247l.168.146-.662.123c-.415-.213-.617-.314-.661-.5-.034-.135.022-.235.3-.314l-.65-.325.392-.078Z" transform="translate(-683.224 -706.22)"/>
      <path id="パス_327" data-name="パス 327" class="cls-3" d="M812.706,988.737c1.794-.123,4.059,1.233,2.231,1.345C813.245,990.184,810.98,988.849,812.706,988.737Z" transform="translate(-640.506 -721.606)"/>
      <path id="パス_328" data-name="パス 328" class="cls-3" d="M931.987,967.067c1.828-.179,4.048,1.132,2.422,1.312C932.76,968.558,930.383,967.224,931.987,967.067Z" transform="translate(-746.489 -702.357)"/>
      <path id="パス_329" data-name="パス 329" class="cls-2" d="M653.687,916.441,642.8,911.127l23.119-4.227c1.334.662,9.642,4.664,10.865,5.326Z" transform="translate(-490.199 -648.951)"/>
      <path id="パス_330" data-name="パス 330" class="cls-3" d="M686.249,915.653l-21.841,3.98-9.508-4.642L676.73,911Z" transform="translate(-500.942 -652.592)"/>
      <path id="パス_331" data-name="パス 331" class="cls-2" d="M696.221,939.1l-6.7,1.245a6.5,6.5,0,0,0-3.509-.639l-4.193-2.052c.908-.213.774-.684-.314-1.222l6.783-1.233c.1.213-.034.123.179.493.561.964,2.579,2.074,5.068,2.8A23.178,23.178,0,0,0,696.221,939.1Z" transform="translate(-524.56 -674.078)"/>
      <path id="パス_332" data-name="パス 332" class="cls-2" d="M786.215,918.762l4,1.94c.123.123.078.056-.034.135-.135.09-.426.09-.392.392s.471.448.818.774l-6.671,1.222-.112-.258c-.1-.886-2.512-2.242-5.225-3.05-.4-.123-1.031-.269-1.357-.336l-1.345-.247,6.7-1.233a15.654,15.654,0,0,0,1.861.561A7.758,7.758,0,0,0,786.215,918.762Z" transform="translate(-608.375 -658.896)"/>
      <path id="パス_333" data-name="パス 333" class="cls-2" d="M768.443,937.425a4,4,0,0,1,2.041.325c1.895.83-.762.942.785,1.469.572.191,1.514.112.628-.381l.751-.123c.807.426.9.684.258.863l.561.292-.359.078-.594-.292c-1.491.135-3.106-.605-2.713-1.1.146-.179.7-.336.056-.628a1.373,1.373,0,0,0-1-.123c-.157.067-.045.168.045.247l.168.146-.661.123c-.415-.213-.617-.314-.661-.5-.034-.135.022-.235.3-.314l-.65-.325.392-.078Z" transform="translate(-600.828 -675.765)"/>
      <path id="パス_334" data-name="パス 334" class="cls-3" d="M719.906,954.437c1.794-.123,4.059,1.233,2.231,1.345C720.445,955.884,718.18,954.549,719.906,954.437Z" transform="translate(-558.111 -691.152)"/>
      <path id="パス_335" data-name="パス 335" class="cls-3" d="M839.187,932.767c1.828-.179,4.048,1.132,2.422,1.312C839.96,934.258,837.583,932.924,839.187,932.767Z" transform="translate(-664.094 -671.903)"/>
      <path id="パス_336" data-name="パス 336" class="cls-2" d="M699.784,875.832l11.414-6.088L686.98,864.9c-1.4.751-10.1,5.348-11.38,6.111Z" transform="translate(-519.321 -611.66)"/>
      <path id="パス_337" data-name="パス 337" class="cls-3" d="M687.4,874.937l22.895,4.563,9.956-5.337L697.39,869.6Z" transform="translate(-529.798 -615.833)"/>
      <path id="パス_338" data-name="パス 338" class="cls-2" d="M815,901.862l7.03,1.424a6.3,6.3,0,0,1,3.678-.729l4.4-2.343c-.953-.247-.818-.785.325-1.4l-7.108-1.413c-.1.247.034.146-.179.561-.583,1.1-2.7,2.377-5.315,3.207A23.026,23.026,0,0,1,815,901.862Z" transform="translate(-643.091 -640.517)"/>
      <path id="パス_339" data-name="パス 339" class="cls-2" d="M720.719,878.451l-4.193,2.22c-.135.135-.09.056.034.157.146.112.448.1.4.448s-.493.516-.863.9l6.985,1.4.112-.292c.1-1.009,2.635-2.568,5.471-3.5.415-.135,1.076-.314,1.424-.392l1.4-.28-7.03-1.413a17.3,17.3,0,0,1-1.951.65A7.448,7.448,0,0,1,720.719,878.451Z" transform="translate(-555.28 -623.025)"/>
      <path id="パス_340" data-name="パス 340" class="cls-2" d="M811.347,899.781a3.817,3.817,0,0,0-2.13.37c-1.984.953.8,1.076-.83,1.682-.594.213-1.592.135-.65-.437l-.785-.146c-.841.482-.942.785-.269.987l-.583.325.381.09.628-.336c1.558.157,3.251-.7,2.848-1.256-.157-.2-.729-.381-.056-.718a1.4,1.4,0,0,1,1.043-.146c.168.078.045.2-.045.292l-.179.168.684.135c.437-.247.639-.359.7-.572.034-.146-.022-.269-.314-.359l.684-.37-.415-.09Z" transform="translate(-635.189 -642.292)"/>
      <path id="パス_341" data-name="パス 341" class="cls-3" d="M883.08,919.224c-1.872-.146-4.261,1.413-2.332,1.547C882.519,920.895,884.885,919.37,883.08,919.224Z" transform="translate(-700.834 -659.885)"/>
      <path id="パス_342" data-name="パス 342" class="cls-3" d="M758.239,894.438c-1.917-.213-4.238,1.3-2.534,1.514S759.92,894.617,758.239,894.438Z" transform="translate(-589.918 -637.868)"/>
      <path id="パス_343" data-name="パス 343" class="cls-2" d="M210.421,932.139l11-5.875L198.077,921.6c-1.357.729-9.732,5.146-10.977,5.886Z" transform="translate(-85.592 -662.003)"/>
      <path id="パス_344" data-name="パス 344" class="cls-3" d="M198.6,931.246l22.065,4.4,9.6-5.135L208.22,926.1Z" transform="translate(-95.802 -665.999)"/>
      <path id="パス_345" data-name="パス 345" class="cls-2" d="M321.5,957.117l6.772,1.368a6.122,6.122,0,0,1,3.543-.706l4.238-2.265c-.919-.235-.785-.751.314-1.357l-6.851-1.357c-.1.235.034.146-.179.538-.561,1.065-2.6,2.287-5.124,3.095A21.992,21.992,0,0,1,321.5,957.117Z" transform="translate(-204.923 -689.705)"/>
      <path id="パス_346" data-name="パス 346" class="cls-2" d="M230.84,934.718l-4.036,2.141c-.123.135-.078.056.034.146.135.1.426.1.392.437-.034.314-.471.493-.83.863l6.738,1.357.112-.292c.1-.975,2.534-2.467,5.27-3.364.4-.135,1.043-.3,1.368-.37l1.357-.28L234.473,934a15.958,15.958,0,0,1-1.872.628A7.773,7.773,0,0,1,230.84,934.718Z" transform="translate(-120.485 -673.013)"/>
      <path id="パス_347" data-name="パス 347" class="cls-2" d="M317.957,955.348a3.642,3.642,0,0,0-2.052.359c-1.906.919.774,1.043-.8,1.615-.572.213-1.536.123-.628-.415l-.762-.135c-.807.471-.908.762-.258.953l-.561.314.37.09.605-.325c1.5.146,3.139-.673,2.736-1.211-.146-.2-.706-.37-.056-.7a1.233,1.233,0,0,1,1-.135c.168.067.045.191-.045.28l-.168.168.661.135c.426-.235.617-.348.673-.561.034-.146-.022-.258-.3-.348l.65-.359-.392-.078Z" transform="translate(-197.287 -691.658)"/>
      <path id="パス_348" data-name="パス 348" class="cls-3" d="M387.143,974.032c-1.805-.135-4.1,1.357-2.254,1.491C386.6,975.635,388.892,974.167,387.143,974.032Z" transform="translate(-260.598 -708.549)"/>
      <path id="パス_349" data-name="パス 349" class="cls-3" d="M266.838,950.149c-1.85-.2-4.081,1.256-2.444,1.458C266.053,951.8,268.452,950.317,266.838,950.149Z" transform="translate(-153.714 -687.334)"/>
      <path id="パス_350" data-name="パス 350" class="cls-2" d="M210.3,857.539l-11-5.875L222.643,847c1.357.729,9.732,5.146,10.977,5.886Z" transform="translate(-96.424 -595.767)"/>
      <path id="パス_351" data-name="パス 351" class="cls-3" d="M243.163,856.735l-22.065,4.4-9.6-5.124,22.043-4.406Z" transform="translate(-107.256 -599.852)"/>
      <path id="パス_352" data-name="パス 352" class="cls-2" d="M253.267,882.428,246.5,883.8a6.121,6.121,0,0,0-3.543-.706l-4.238-2.265c.919-.235.785-.751-.314-1.357l6.851-1.368c.1.235-.034.146.179.538.561,1.065,2.6,2.287,5.124,3.094A17.468,17.468,0,0,0,253.267,882.428Z" transform="translate(-131.14 -623.38)"/>
      <path id="パス_353" data-name="パス 353" class="cls-2" d="M344.1,860.206l4.036,2.141c.123.135.078.056-.034.146-.135.1-.426.1-.392.437.034.314.471.493.83.863l-6.738,1.357-.112-.28c-.1-.975-2.534-2.467-5.27-3.364-.4-.135-1.043-.3-1.368-.37l-1.357-.28,6.772-1.357a15.957,15.957,0,0,0,1.872.628A8.363,8.363,0,0,0,344.1,860.206Z" transform="translate(-215.755 -606.866)"/>
      <path id="パス_354" data-name="パス 354" class="cls-2" d="M326.065,880.848a3.641,3.641,0,0,1,2.052.359c1.906.919-.774,1.043.8,1.615.572.213,1.536.123.628-.415l.762-.135c.807.471.908.762.258.953l.561.314-.37.09-.605-.325c-1.5.146-3.139-.673-2.736-1.211.146-.2.706-.37.056-.7a1.233,1.233,0,0,0-1-.135c-.168.067-.045.191.045.28l.168.168-.661.135c-.426-.235-.617-.348-.673-.561-.034-.146.022-.258.3-.348l-.65-.359.4-.078Z" transform="translate(-208.03 -625.511)"/>
      <path id="パス_355" data-name="パス 355" class="cls-3" d="M277.134,899.432c1.805-.135,4.1,1.357,2.254,1.491C277.672,901.047,275.385,899.567,277.134,899.432Z" transform="translate(-164.974 -642.313)"/>
      <path id="パス_356" data-name="パス 356" class="cls-3" d="M397.564,875.549c1.85-.2,4.081,1.256,2.444,1.458C398.348,877.208,395.949,875.728,397.564,875.549Z" transform="translate(-271.983 -621.098)"/>
      <path id="パス_357" data-name="パス 357" class="cls-2" d="M454.8,925.928l-11-5.864,23.343-4.664c1.357.729,9.732,5.146,10.977,5.886Z" transform="translate(-313.51 -656.498)"/>
      <path id="パス_358" data-name="パス 358" class="cls-3" d="M487.663,925.035,465.6,929.441l-9.6-5.135,22.043-4.406Z" transform="translate(-324.343 -660.494)"/>
      <path id="パス_359" data-name="パス 359" class="cls-2" d="M497.767,950.728,491,952.1a6.121,6.121,0,0,0-3.543-.706l-4.238-2.265c.919-.235.785-.751-.314-1.357l6.851-1.368c.1.235-.034.146.179.538.561,1.065,2.6,2.287,5.124,3.094A17.46,17.46,0,0,0,497.767,950.728Z" transform="translate(-348.227 -684.023)"/>
      <path id="パス_360" data-name="パス 360" class="cls-2" d="M588.6,928.506l4.036,2.141c.123.135.078.056-.034.146-.135.1-.426.1-.392.437.034.314.471.493.83.863l-6.738,1.357-.112-.28c-.1-.975-2.534-2.467-5.27-3.364-.4-.135-1.043-.3-1.368-.37l-1.357-.28,6.772-1.357a15.932,15.932,0,0,0,1.872.628A7.665,7.665,0,0,0,588.6,928.506Z" transform="translate(-432.842 -667.508)"/>
      <path id="パス_361" data-name="パス 361" class="cls-2" d="M570.565,949.059a3.642,3.642,0,0,1,2.052.359c1.906.919-.774,1.043.8,1.615.572.213,1.536.123.628-.415l.762-.135c.807.471.9.762.258.953l.561.314-.37.09-.605-.325c-1.5.146-3.139-.673-2.736-1.211.146-.2.706-.37.056-.7a1.233,1.233,0,0,0-1-.135c-.168.067-.045.191.045.28l.168.157-.661.135c-.426-.235-.617-.348-.673-.561-.034-.146.022-.258.3-.348l-.65-.359.4-.078Z" transform="translate(-425.117 -686.065)"/>
      <path id="パス_362" data-name="パス 362" class="cls-3" d="M521.634,967.832c1.805-.135,4.1,1.357,2.254,1.491C522.172,969.435,519.885,967.955,521.634,967.832Z" transform="translate(-382.061 -703.044)"/>
      <path id="パス_363" data-name="パス 363" class="cls-3" d="M642.064,943.849c1.85-.2,4.081,1.256,2.444,1.458C642.849,945.508,640.449,944.028,642.064,943.849Z" transform="translate(-489.07 -681.74)"/>
      <path id="パス_364" data-name="パス 364" class="cls-2" d="M334.8,885.239l-11-5.875,23.343-4.664c1.357.729,9.732,5.146,10.977,5.886Z" transform="translate(-206.965 -620.362)"/>
      <path id="パス_365" data-name="パス 365" class="cls-3" d="M367.663,884.435,345.6,888.841l-9.6-5.135,22.043-4.406Z" transform="translate(-217.797 -624.446)"/>
      <path id="パス_366" data-name="パス 366" class="cls-2" d="M377.767,910.305,371,911.673a6.122,6.122,0,0,0-3.543-.706l-4.238-2.265c.919-.235.785-.751-.314-1.357L369.751,906c.1.235-.034.146.179.538.561,1.065,2.6,2.287,5.124,3.094A19.7,19.7,0,0,0,377.767,910.305Z" transform="translate(-241.681 -648.152)"/>
      <path id="パス_367" data-name="パス 367" class="cls-2" d="M468.6,887.906l4.036,2.141c.123.135.078.056-.034.146-.135.1-.426.1-.392.437.034.314.471.493.83.863l-6.738,1.357-.112-.28c-.1-.975-2.534-2.467-5.27-3.364-.4-.135-1.043-.3-1.368-.37l-1.357-.28,6.772-1.357a15.955,15.955,0,0,0,1.872.628A7.665,7.665,0,0,0,468.6,887.906Z" transform="translate(-326.296 -631.46)"/>
      <path id="パス_368" data-name="パス 368" class="cls-2" d="M450.565,908.459a3.642,3.642,0,0,1,2.052.359c1.906.919-.774,1.043.8,1.615.572.213,1.536.123.628-.415l.762-.135c.807.471.9.762.258.953l.561.314-.37.09-.605-.325c-1.5.146-3.139-.673-2.736-1.211.146-.2.706-.37.056-.7a1.233,1.233,0,0,0-1-.135c-.168.067-.045.191.045.28l.168.157-.662.135c-.426-.235-.617-.348-.673-.561-.034-.146.022-.258.3-.348l-.65-.359.4-.078Z" transform="translate(-318.571 -650.017)"/>
      <path id="パス_369" data-name="パス 369" class="cls-3" d="M401.634,927.132c1.805-.135,4.1,1.357,2.254,1.491C402.172,928.747,399.885,927.267,401.634,927.132Z" transform="translate(-275.515 -666.907)"/>
      <path id="パス_370" data-name="パス 370" class="cls-3" d="M522.064,903.249c1.85-.2,4.081,1.256,2.444,1.458C522.849,904.908,520.449,903.428,522.064,903.249Z" transform="translate(-382.524 -645.692)"/>
      <g id="グループ化_57" data-name="グループ化 57" transform="translate(125.816 189.802)">
        <path id="パス_371" data-name="パス 371" class="cls-4" d="M407.656,299.1H465.9a3.771,3.771,0,0,1,3.756,3.756V361.1a3.771,3.771,0,0,1-3.756,3.756H407.656A3.771,3.771,0,0,1,403.9,361.1V302.856A3.771,3.771,0,0,1,407.656,299.1Z" transform="translate(-403.9 -299.1)"/>
        <path id="パス_372" data-name="パス 372" class="cls-5" d="M440.73,332.6h51.6a3.345,3.345,0,0,1,3.33,3.33v51.6a3.345,3.345,0,0,1-3.33,3.33h-51.6a3.345,3.345,0,0,1-3.33-3.33v-51.6A3.345,3.345,0,0,1,440.73,332.6Z" transform="translate(-433.644 -328.844)"/>
        <path id="パス_373" data-name="パス 373" class="cls-6" d="M470.049,362.3h45.7a2.952,2.952,0,0,1,2.949,2.949v45.7a2.952,2.952,0,0,1-2.949,2.949h-45.7a2.952,2.952,0,0,1-2.949-2.949v-45.7A2.952,2.952,0,0,1,470.049,362.3Z" transform="translate(-460.014 -355.214)"/>
        <path id="パス_374" data-name="パス 374" class="cls-7" d="M495.484,511.581c2.287-.583,1.558-3,1.368-7.456-.123-3.072-.269-6.189-.348-9.272l.269-.247c.224-.191.2-.146.392-.325.4-.37.292-.056.549-.785.74-2.085-1.088-2.052-1.39-3.5-.224-1.054.045-1.177-.953-1.558a1.334,1.334,0,0,0-1.727.762c-.628,1.558.5.706-.975,1.872a1.889,1.889,0,0,0,.034,3.3l.572.471c-.034,2.1-.886,15.136-.605,15.663C493.185,511.054,494.531,512.3,495.484,511.581Z" transform="translate(-481.872 -467.137)"/>
      </g>
      <path id="パス_375" data-name="パス 375" class="cls-4" d="M562.312,434.7a18.6,18.6,0,1,1-13.163,5.449,18.556,18.556,0,0,1,13.163-5.449Zm7.434,11.19a10.53,10.53,0,1,0,3.072,7.434A10.463,10.463,0,0,0,569.746,445.89Z" transform="translate(-402.21 -229.695)"/>
      <path id="パス_376" data-name="パス 376" class="cls-8" d="M594.364,500.029A14.564,14.564,0,1,0,579.8,485.464,14.592,14.592,0,0,0,594.364,500.029Z" transform="translate(-434.262 -261.836)"/>
      <path id="パス_377" data-name="パス 377" class="cls-9" d="M639.378,525.916c-.448.157-.258.706-.314,1.155-.067.482-.381.549-.818.673a6.162,6.162,0,0,1-1.2.28c-.46-.022-.583-.415-.762-.718-.258-.415-.336-.572-.886-.269-.168.09-.348.135-.381.348-.1.527.785,1.031.381,1.637l-.729.762c-.179.179-.5.583-.942.516-.538-.078-1.02-.942-1.458-.157-.4.718-.258.628.617,1.188.37.235.37.538.235,1.043-.381,1.458-.269,1.525-1.458,1.525-.235,0-.426,0-.527.2a1.4,1.4,0,0,0-.045.718c.1.46.639.359,1.11.37.5.011.594.325.718.762a8.993,8.993,0,0,1,.292,1.211c.011.762-.987.762-1.121,1.11a.912.912,0,0,0,.482.931c.572.179,1-.751,1.615-.359a9.147,9.147,0,0,1,.762.729c.191.191.594.46.549.908s-.9,1.065-.235,1.469c.751.46.875.112,1.256-.572.247-.46.493-.392,1.02-.258a10.292,10.292,0,0,1,1.166.325c.852.392-.213,2.052,1.267,1.715.493-.112.381-.594.392-1.076.011-.516.292-.628.751-.74,1.39-.348,1.458-.605,2,.336.2.348.348.673.875.392.359-.191.561-.471.292-.908-.09-.157-.179-.292-.269-.46-.3-.549.292-.919.729-1.357.191-.191.482-.605.863-.583.471.034,1.076.875,1.514.28.605-.841-.135-1.009-.549-1.267s-.381-.5-.235-1.054a10.994,10.994,0,0,1,.325-1.166c.359-.818,2,.269,1.7-1.256-.1-.516-.583-.4-1.054-.4-.516-.011-.628-.269-.751-.729-.336-1.323-.628-1.469.336-2.007.348-.191.65-.426.381-.886-.258-.437-.392-.572-.919-.269-.987.572-1.009.359-1.861-.516-.168-.179-.594-.5-.5-.931.112-.5.908-1.043.146-1.469-.146-.078-.348-.247-.572-.191-.269.078-.448.628-.639.863-.314.37-.583.3-1.088.168a7.8,7.8,0,0,1-1.155-.336c-.617-.325.045-1.458-.561-1.659A1.521,1.521,0,0,0,639.378,525.916Z" transform="translate(-479.78 -310.651)"/>
      <path id="パス_378" data-name="パス 378" class="cls-10" d="M673.373,572.745A4.373,4.373,0,1,0,669,568.373,4.378,4.378,0,0,0,673.373,572.745Z" transform="translate(-513.461 -344.497)"/>
      <path id="パス_379" data-name="パス 379" class="cls-11" d="M272.5,877.847V875.1h19.7v2.893Z" transform="translate(-161.414 -620.717)"/>
      <path id="パス_380" data-name="パス 380" class="cls-11" d="M292.068,876.508c-.28-.673-1.446-1.514-3.935-2.052a24.393,24.393,0,0,0-3.487-.493,30.786,30.786,0,0,0-6.929.258c-6.682,1.11-6.862,3.812-1.166,5.012C284.029,880.825,293.054,878.908,292.068,876.508Z" transform="translate(-161.397 -619.636)"/>
      <path id="パス_381" data-name="パス 381" class="cls-11" d="M288.032,850.857a24.4,24.4,0,0,0-3.487-.493,30.786,30.786,0,0,0-6.929.258c-6.682,1.11-6.862,3.812-1.166,5.012,7.49,1.592,16.515-.314,15.517-2.724C291.7,852.236,290.532,851.384,288.032,850.857Z" transform="translate(-161.308 -598.682)"/>
      <path id="パス_382" data-name="パス 382" class="cls-12" d="M294.34,852.984a23.6,23.6,0,0,0-4.788-.661l-1.615-.022c-.157,0-.224.011-.381.022-.213.011-.168,0-.37.011a20.722,20.722,0,0,0-5.606.931,5.243,5.243,0,0,0-1.816.964.939.939,0,0,0-.157,1.435,2.406,2.406,0,0,0,.549.482c1.177.852,4.115,1.5,7.108,1.592a19.458,19.458,0,0,0,2,0,20.922,20.922,0,0,0,5.976-.919c1.289-.471,1.85-.875,2.119-1.446a.693.693,0,0,0,.045-.493.5.5,0,0,0-.045-.224C297,854.015,296.122,853.432,294.34,852.984Z" transform="translate(-167.492 -600.473)"/>
      <path id="パス_383" data-name="パス 383" class="cls-13" d="M328.284,865.992c-.448.045-.235-.022-.852-.078a7.03,7.03,0,0,0-2.455.224,1.033,1.033,0,0,0-.426.247c-.123.123-.067.123-.056.247.022.2.381.3.762.493.3.146.65.348.628.482-.034.224-.83.359-1.357.325a3.242,3.242,0,0,1-1.469-.37c-.336-.213-.022-.325.594-.516l-.919-.292c-.594.191-1.009.336-1.043.561-.045.28.157.269.572.549l-.863.269.931.269.875-.269c2.018.415,3.969-.078,4.025-.493,0-.034-.011-.067-.011-.112,0-.078.022-.056-.034-.135-.191-.247-1.009-.5-1.3-.729-.549-.415,1.368-.661,2.242-.179.426.235.157.314-.067.46a46.551,46.551,0,0,0-.045.045l.9.258c.437-.157.729-.314.785-.493.067-.224-.135-.247-.527-.482l.919-.292-.931-.28Z" transform="translate(-204.834 -612.371)"/>
      <path id="パス_384" data-name="パス 384" class="cls-11" d="M327.184,864.88c-.448.045-.235-.022-.852-.067a6.722,6.722,0,0,0-.807-.022,6.654,6.654,0,0,0-1.648.247,1.033,1.033,0,0,0-.426.247c-.123.123-.067.123-.056.247.022.2.381.3.762.493.3.146.65.348.628.482-.034.224-.83.359-1.357.325a3.242,3.242,0,0,1-1.469-.37c-.336-.213-.022-.314.594-.516l-.919-.292c-.594.191-1.009.336-1.043.561-.045.28.157.269.572.549l-.863.269.931.269.875-.269c2.018.415,3.969-.078,4.025-.493,0-.034-.011-.067-.011-.112,0-.078.022-.056-.034-.135-.191-.247-1.009-.5-1.3-.729-.549-.415,1.368-.65,2.242-.179.426.235.157.314-.067.46a23.315,23.315,0,0,0-.045.045l.9.258c.437-.157.729-.314.785-.493.067-.224-.135-.247-.527-.482l.919-.292-.931-.28Z" transform="translate(-203.857 -611.394)"/>
      <path id="パス_385" data-name="パス 385" class="cls-14" d="M286.9,882.122c1.413,2.063,15.114,2.455,16.235-.022C303.1,884.555,289,885,286.9,882.122Z" transform="translate(-174.202 -626.932)"/>
      <path id="パス_386" data-name="パス 386" class="cls-15" d="M299.1,854.809c1.794.527,2.545,1.256,2.287,1.973a4.211,4.211,0,0,0-2.13-1.144,23.474,23.474,0,0,0-11.56.157c-1.39.437-2.2.975-2.4,1.525-.605-.8.146-1.693,2.242-2.354A23.213,23.213,0,0,1,299.1,854.809Z" transform="translate(-172.596 -602.119)"/>
      <path id="パス_387" data-name="パス 387" class="cls-11" d="M278.3,838.447V835.7H298v2.893Z" transform="translate(-166.564 -585.734)"/>
      <path id="パス_388" data-name="パス 388" class="cls-11" d="M297.867,837.009c-.28-.673-1.446-1.514-3.935-2.052a24.4,24.4,0,0,0-3.487-.493,30.786,30.786,0,0,0-6.929.258c-6.682,1.11-6.862,3.812-1.166,5.012C289.828,841.325,298.854,839.419,297.867,837.009Z" transform="translate(-166.546 -584.565)"/>
      <path id="パス_389" data-name="パス 389" class="cls-11" d="M293.832,811.357a24.4,24.4,0,0,0-3.487-.493,30.786,30.786,0,0,0-6.929.258c-6.682,1.11-6.862,3.812-1.166,5.012,7.49,1.592,16.515-.314,15.517-2.725C297.5,812.747,296.332,811.895,293.832,811.357Z" transform="translate(-166.458 -563.611)"/>
      <path id="パス_390" data-name="パス 390" class="cls-12" d="M300.14,813.584a23.6,23.6,0,0,0-4.788-.661l-1.615-.022c-.157,0-.224.011-.381.022-.213.011-.168,0-.37.011a20.722,20.722,0,0,0-5.606.931,5.243,5.243,0,0,0-1.816.964.939.939,0,0,0-.157,1.435,2.406,2.406,0,0,0,.549.482c1.177.852,4.115,1.5,7.108,1.592a19.458,19.458,0,0,0,2,0,20.922,20.922,0,0,0,5.976-.919c1.289-.471,1.85-.875,2.119-1.446a.693.693,0,0,0,.045-.493.5.5,0,0,0-.045-.224C302.8,814.615,301.922,814.032,300.14,813.584Z" transform="translate(-172.642 -565.491)"/>
      <path id="パス_391" data-name="パス 391" class="cls-13" d="M334.084,826.492c-.448.045-.235-.022-.852-.078a6.721,6.721,0,0,0-.807-.022,6.653,6.653,0,0,0-1.648.247,1.033,1.033,0,0,0-.426.247c-.123.123-.067.123-.056.247.022.2.381.3.762.493.3.146.65.348.628.482-.034.224-.83.359-1.357.325a3.242,3.242,0,0,1-1.469-.37c-.336-.213-.022-.325.594-.516l-.919-.292c-.594.191-1.009.336-1.043.561-.045.28.157.269.572.549l-.863.269.931.269.875-.269c2.018.415,3.969-.078,4.025-.493,0-.034-.011-.067-.011-.112,0-.078.022-.056-.034-.135-.191-.247-1.009-.5-1.3-.729-.549-.415,1.368-.661,2.242-.179.426.235.157.314-.067.46a15.535,15.535,0,0,0-.045.045l.9.258c.437-.157.729-.314.785-.493.067-.224-.135-.247-.527-.482l.919-.292-.931-.28Z" transform="translate(-209.984 -577.3)"/>
      <path id="パス_392" data-name="パス 392" class="cls-11" d="M332.984,825.48c-.448.045-.235-.022-.852-.067a7.025,7.025,0,0,0-2.455.224,1.034,1.034,0,0,0-.426.247c-.123.123-.067.123-.056.247.022.2.381.3.762.493.3.146.65.348.628.482-.034.224-.83.359-1.357.325a3.242,3.242,0,0,1-1.469-.37c-.336-.213-.022-.314.594-.516l-.919-.292c-.594.191-1.009.336-1.043.561-.045.28.157.269.572.549l-.863.269.931.269.875-.269c2.018.415,3.969-.078,4.025-.493,0-.034-.011-.067-.011-.112,0-.078.022-.056-.034-.135-.191-.247-1.009-.5-1.3-.729-.549-.415,1.368-.65,2.242-.179.426.235.157.314-.067.46a23.315,23.315,0,0,1-.045.045l.9.258c.437-.157.729-.314.785-.493.067-.224-.135-.247-.527-.482l.919-.292-.931-.28Z" transform="translate(-209.007 -576.412)"/>
      <path id="パス_393" data-name="パス 393" class="cls-14" d="M292.7,842.722c1.413,2.063,15.114,2.455,16.235-.022C308.9,845.155,294.8,845.6,292.7,842.722Z" transform="translate(-179.352 -591.95)"/>
      <path id="パス_394" data-name="パス 394" class="cls-15" d="M304.9,815.375c1.794.527,2.545,1.256,2.287,1.973a4.211,4.211,0,0,0-2.13-1.144,23.475,23.475,0,0,0-11.56.157c-1.39.437-2.2.975-2.4,1.525-.605-.8.146-1.693,2.242-2.355A23.475,23.475,0,0,1,304.9,815.375Z" transform="translate(-177.746 -567.114)"/>
      <path id="パス_395" data-name="パス 395" class="cls-11" d="M272.5,801.747V799h19.7v2.893Z" transform="translate(-161.414 -553.149)"/>
      <path id="パス_396" data-name="パス 396" class="cls-11" d="M292.068,800.409c-.28-.673-1.446-1.514-3.935-2.052a24.4,24.4,0,0,0-3.487-.493,30.786,30.786,0,0,0-6.929.258c-6.682,1.11-6.862,3.812-1.166,5.012C284.029,804.725,293.054,802.819,292.068,800.409Z" transform="translate(-161.397 -552.069)"/>
      <path id="パス_397" data-name="パス 397" class="cls-11" d="M288.032,774.757a22.913,22.913,0,0,0-3.487-.493,30.786,30.786,0,0,0-6.929.258c-6.682,1.11-6.862,3.812-1.166,5.012,7.49,1.592,16.515-.314,15.517-2.724C291.7,776.136,290.532,775.284,288.032,774.757Z" transform="translate(-161.308 -531.115)"/>
      <path id="パス_398" data-name="パス 398" class="cls-12" d="M294.34,776.884a23.6,23.6,0,0,0-4.788-.661l-1.615-.022c-.157,0-.224.011-.381.022-.213.011-.168,0-.37.011a20.72,20.72,0,0,0-5.606.931,5.243,5.243,0,0,0-1.816.964.939.939,0,0,0-.157,1.435,2.406,2.406,0,0,0,.549.482c1.177.852,4.115,1.5,7.108,1.592a19.475,19.475,0,0,0,2,0,20.92,20.92,0,0,0,5.976-.919c1.289-.471,1.85-.875,2.119-1.446a.693.693,0,0,0,.045-.493.5.5,0,0,0-.045-.224C297,777.927,296.122,777.332,294.34,776.884Z" transform="translate(-167.492 -532.905)"/>
      <path id="パス_399" data-name="パス 399" class="cls-13" d="M328.284,789.892c-.448.045-.235-.022-.852-.078a7.03,7.03,0,0,0-2.455.224,1.033,1.033,0,0,0-.426.247c-.123.123-.067.123-.056.247.022.2.381.3.762.493.3.146.65.348.628.482-.034.224-.83.359-1.357.325a3.242,3.242,0,0,1-1.469-.37c-.336-.213-.022-.325.594-.516l-.919-.292c-.594.191-1.009.336-1.043.561-.045.28.157.269.572.549l-.863.269.931.269.875-.269c2.018.415,3.969-.078,4.025-.493,0-.034-.011-.067-.011-.112,0-.078.022-.056-.034-.135-.191-.247-1.009-.5-1.3-.729-.549-.415,1.368-.661,2.242-.179.426.235.157.314-.067.46a46.551,46.551,0,0,0-.045.045l.9.258c.437-.157.729-.314.785-.493.067-.224-.135-.247-.527-.482l.919-.292-.931-.28Z" transform="translate(-204.834 -544.803)"/>
      <path id="パス_400" data-name="パス 400" class="cls-11" d="M327.184,788.88c-.448.045-.235-.022-.852-.067a7.03,7.03,0,0,0-2.455.224,1.033,1.033,0,0,0-.426.247c-.123.123-.067.123-.056.247.022.2.381.3.762.493.3.146.65.348.628.482-.034.224-.83.359-1.357.325a3.242,3.242,0,0,1-1.469-.37c-.336-.213-.022-.314.594-.516l-.919-.292c-.594.191-1.009.336-1.043.561-.045.28.157.269.572.549l-.863.269.931.269.875-.269c2.018.415,3.969-.078,4.025-.493,0-.034-.011-.067-.011-.112,0-.078.022-.056-.034-.135-.191-.247-1.009-.5-1.3-.729-.549-.415,1.368-.65,2.242-.179.426.235.157.314-.067.46a25383165055.616,25383165055.616,0,0,0-.045.045l.9.258c.437-.157.729-.314.785-.493.067-.224-.135-.247-.527-.482l.919-.292-.931-.28Z" transform="translate(-203.857 -543.915)"/>
      <path id="パス_401" data-name="パス 401" class="cls-14" d="M286.9,806.022c1.413,2.063,15.114,2.455,16.235-.022C303.1,808.467,289,808.9,286.9,806.022Z" transform="translate(-174.202 -559.364)"/>
      <path id="パス_402" data-name="パス 402" class="cls-15" d="M299.1,778.74c1.794.527,2.545,1.256,2.287,1.973a4.211,4.211,0,0,0-2.13-1.144,23.475,23.475,0,0,0-11.56.157c-1.39.437-2.2.975-2.4,1.525-.605-.8.146-1.693,2.242-2.355A23.343,23.343,0,0,1,299.1,778.74Z" transform="translate(-172.596 -534.582)"/>
      <path id="パス_403" data-name="パス 403" class="cls-11" d="M278.3,762.347V759.6H298v2.893Z" transform="translate(-166.564 -518.167)"/>
      <path id="パス_404" data-name="パス 404" class="cls-11" d="M297.867,760.909c-.28-.673-1.446-1.514-3.935-2.052a24.4,24.4,0,0,0-3.487-.493,30.786,30.786,0,0,0-6.929.258c-6.682,1.11-6.862,3.812-1.166,5.012C289.828,765.225,298.854,763.319,297.867,760.909Z" transform="translate(-166.546 -516.997)"/>
      <path id="パス_405" data-name="パス 405" class="cls-11" d="M293.832,735.257a22.9,22.9,0,0,0-3.487-.493,30.786,30.786,0,0,0-6.929.258c-6.682,1.11-6.862,3.812-1.166,5.012,7.49,1.592,16.515-.314,15.517-2.725C297.5,736.647,296.332,735.795,293.832,735.257Z" transform="translate(-166.458 -496.043)"/>
      <path id="パス_406" data-name="パス 406" class="cls-12" d="M300.14,737.484a23.6,23.6,0,0,0-4.788-.661l-1.615-.022c-.157,0-.224.011-.381.022-.213.011-.168,0-.37.011a20.719,20.719,0,0,0-5.606.931,5.243,5.243,0,0,0-1.816.964.939.939,0,0,0-.157,1.435,2.406,2.406,0,0,0,.549.482c1.177.852,4.115,1.5,7.108,1.592a19.458,19.458,0,0,0,2,0,20.922,20.922,0,0,0,5.976-.919c1.289-.471,1.85-.875,2.119-1.446a.694.694,0,0,0,.045-.493.5.5,0,0,0-.045-.224C302.8,738.515,301.922,737.932,300.14,737.484Z" transform="translate(-172.642 -497.923)"/>
      <path id="パス_407" data-name="パス 407" class="cls-13" d="M334.084,750.392c-.448.045-.235-.022-.852-.078a7.025,7.025,0,0,0-2.455.224,1.032,1.032,0,0,0-.426.247c-.123.123-.067.123-.056.247.022.2.381.3.762.493.3.146.65.348.628.482-.034.224-.83.359-1.357.325a3.242,3.242,0,0,1-1.469-.37c-.336-.213-.022-.325.594-.516l-.919-.292c-.594.191-1.009.336-1.043.561-.045.28.157.269.572.549l-.863.269.931.269.875-.269c2.018.415,3.969-.078,4.025-.493,0-.034-.011-.067-.011-.112,0-.078.022-.056-.034-.135-.191-.247-1.009-.5-1.3-.729-.549-.415,1.368-.662,2.242-.179.426.235.157.314-.067.46a15.535,15.535,0,0,0-.045.045l.9.258c.437-.157.729-.314.785-.493.067-.224-.135-.247-.527-.482l.919-.292-.931-.28Z" transform="translate(-209.984 -509.732)"/>
      <path id="パス_408" data-name="パス 408" class="cls-11" d="M332.984,749.38c-.448.045-.235-.022-.852-.067a7.025,7.025,0,0,0-2.455.224,1.032,1.032,0,0,0-.426.247c-.123.123-.067.123-.056.247.022.2.381.3.762.493.3.146.65.348.628.482-.034.224-.83.359-1.357.325a3.242,3.242,0,0,1-1.469-.37c-.336-.213-.022-.314.594-.516l-.919-.292c-.594.191-1.009.336-1.043.561-.045.28.157.269.572.549l-.863.269.931.269.875-.269c2.018.415,3.969-.078,4.025-.493,0-.034-.011-.067-.011-.112,0-.078.022-.056-.034-.135-.191-.247-1.009-.5-1.3-.729-.549-.415,1.368-.65,2.242-.179.426.235.157.314-.067.46a23.315,23.315,0,0,0-.045.045l.9.258c.437-.157.729-.314.785-.493.067-.224-.135-.247-.527-.482l.919-.292-.931-.28Z" transform="translate(-209.007 -508.844)"/>
      <path id="パス_409" data-name="パス 409" class="cls-14" d="M292.7,766.622c1.413,2.063,15.114,2.455,16.235-.022C308.9,769.055,294.8,769.5,292.7,766.622Z" transform="translate(-179.352 -524.382)"/>
      <path id="パス_410" data-name="パス 410" class="cls-15" d="M304.9,739.275c1.794.527,2.545,1.256,2.287,1.973a4.211,4.211,0,0,0-2.13-1.144,23.475,23.475,0,0,0-11.56.157c-1.39.437-2.2.975-2.4,1.525-.605-.8.146-1.693,2.242-2.355A23.475,23.475,0,0,1,304.9,739.275Z" transform="translate(-177.746 -499.546)"/>
      <path id="パス_411" data-name="パス 411" class="cls-11" d="M272.5,718.247V715.5h19.7v2.893Z" transform="translate(-161.414 -479.011)"/>
      <path id="パス_412" data-name="パス 412" class="cls-11" d="M292.068,716.808c-.28-.673-1.446-1.514-3.935-2.052a24.393,24.393,0,0,0-3.487-.493,30.786,30.786,0,0,0-6.929.258c-6.682,1.11-6.862,3.812-1.166,5.012C284.029,721.125,293.054,719.219,292.068,716.808Z" transform="translate(-161.397 -477.842)"/>
      <path id="パス_413" data-name="パス 413" class="cls-11" d="M288.032,691.157a24.394,24.394,0,0,0-3.487-.493,30.786,30.786,0,0,0-6.929.258c-6.682,1.11-6.862,3.812-1.166,5.012,7.49,1.592,16.515-.314,15.517-2.725C291.7,692.547,290.532,691.695,288.032,691.157Z" transform="translate(-161.308 -456.888)"/>
      <path id="パス_414" data-name="パス 414" class="cls-12" d="M294.34,693.384a23.6,23.6,0,0,0-4.788-.662l-1.615-.022c-.157,0-.224.011-.381.022-.213.011-.168,0-.37.011a20.72,20.72,0,0,0-5.606.931,5.242,5.242,0,0,0-1.816.964.939.939,0,0,0-.157,1.435,2.406,2.406,0,0,0,.549.482c1.177.852,4.115,1.5,7.108,1.592a19.458,19.458,0,0,0,2,0,20.922,20.922,0,0,0,5.976-.919c1.289-.471,1.85-.875,2.119-1.446a.694.694,0,0,0,.045-.493.5.5,0,0,0-.045-.224C297,694.415,296.122,693.832,294.34,693.384Z" transform="translate(-167.492 -458.767)"/>
      <path id="パス_415" data-name="パス 415" class="cls-13" d="M328.284,706.292c-.448.045-.235-.022-.852-.078a7.025,7.025,0,0,0-2.455.224,1.033,1.033,0,0,0-.426.247c-.123.123-.067.123-.056.247.022.2.381.3.762.493.3.146.65.348.628.482-.034.224-.83.359-1.357.325a3.244,3.244,0,0,1-1.469-.37c-.336-.213-.022-.325.594-.516l-.919-.292c-.594.191-1.009.336-1.043.561-.045.28.157.269.572.549l-.863.269.931.269.875-.269c2.018.415,3.969-.078,4.025-.493,0-.034-.011-.067-.011-.112,0-.078.022-.056-.034-.135-.191-.247-1.009-.5-1.3-.729-.549-.415,1.368-.661,2.242-.179.426.235.157.314-.067.46a46.646,46.646,0,0,1-.045.045l.9.258c.437-.157.729-.314.785-.493.067-.224-.135-.247-.527-.482l.919-.292-.931-.28Z" transform="translate(-204.834 -470.576)"/>
      <path id="パス_416" data-name="パス 416" class="cls-11" d="M327.184,705.28c-.448.045-.235-.022-.852-.067a7.03,7.03,0,0,0-2.455.224,1.033,1.033,0,0,0-.426.247c-.123.123-.067.123-.056.247.022.2.381.3.762.493.3.146.65.348.628.482-.034.224-.83.359-1.357.325a3.242,3.242,0,0,1-1.469-.37c-.336-.213-.022-.314.594-.516l-.919-.292c-.594.191-1.009.336-1.043.561-.045.28.157.269.572.549l-.863.269.931.269.875-.269c2.018.415,3.969-.078,4.025-.493,0-.034-.011-.067-.011-.112,0-.078.022-.056-.034-.135-.191-.247-1.009-.5-1.3-.729-.549-.415,1.368-.65,2.242-.179.426.235.157.314-.067.46a25383165055.607,25383165055.607,0,0,0-.045.045l.9.258c.437-.157.729-.314.785-.493.067-.224-.135-.247-.527-.482l.919-.292-.931-.28Z" transform="translate(-203.857 -469.689)"/>
      <path id="パス_417" data-name="パス 417" class="cls-14" d="M286.9,722.522c1.413,2.063,15.114,2.455,16.235-.022C303.1,724.955,289,725.4,286.9,722.522Z" transform="translate(-174.202 -485.226)"/>
      <path id="パス_418" data-name="パス 418" class="cls-15" d="M299.1,695.175c1.794.527,2.545,1.256,2.287,1.973a4.211,4.211,0,0,0-2.13-1.144,23.475,23.475,0,0,0-11.56.157c-1.39.437-2.2.975-2.4,1.525-.605-.8.146-1.693,2.242-2.354A23.475,23.475,0,0,1,299.1,695.175Z" transform="translate(-172.596 -460.391)"/>
      <path id="パス_419" data-name="パス 419" class="cls-11" d="M278.3,678.747V676H298v2.893Z" transform="translate(-166.564 -443.94)"/>
      <path id="パス_420" data-name="パス 420" class="cls-11" d="M297.867,677.409c-.28-.673-1.446-1.514-3.935-2.052a24.393,24.393,0,0,0-3.487-.493,30.786,30.786,0,0,0-6.929.258c-6.682,1.11-6.862,3.812-1.166,5.012C289.828,681.725,298.854,679.819,297.867,677.409Z" transform="translate(-166.546 -442.859)"/>
      <path id="パス_421" data-name="パス 421" class="cls-11" d="M293.832,651.757a22.912,22.912,0,0,0-3.487-.493,30.786,30.786,0,0,0-6.929.258c-6.682,1.11-6.862,3.812-1.166,5.012,7.49,1.592,16.515-.314,15.517-2.724C297.5,653.136,296.332,652.284,293.832,651.757Z" transform="translate(-166.458 -421.905)"/>
      <path id="パス_422" data-name="パス 422" class="cls-12" d="M300.14,653.884a23.6,23.6,0,0,0-4.788-.661l-1.615-.022c-.157,0-.224.011-.381.022-.213.011-.168,0-.37.011a20.722,20.722,0,0,0-5.606.931,5.243,5.243,0,0,0-1.816.964.939.939,0,0,0-.157,1.435,2.4,2.4,0,0,0,.549.482c1.177.852,4.115,1.5,7.108,1.592a19.475,19.475,0,0,0,2,0,20.922,20.922,0,0,0,5.976-.919c1.289-.471,1.85-.875,2.119-1.446a.694.694,0,0,0,.045-.493.5.5,0,0,0-.045-.224C302.8,654.927,301.922,654.332,300.14,653.884Z" transform="translate(-172.642 -423.696)"/>
      <path id="パス_423" data-name="パス 423" class="cls-13" d="M334.084,666.892c-.448.045-.235-.022-.852-.078a7.03,7.03,0,0,0-2.455.224,1.034,1.034,0,0,0-.426.247c-.123.123-.067.123-.056.247.022.2.381.3.762.493.3.146.65.348.628.482-.034.224-.83.359-1.357.325a3.242,3.242,0,0,1-1.469-.37c-.336-.213-.022-.325.594-.516l-.919-.292c-.594.191-1.009.336-1.043.561-.045.28.157.269.572.549l-.863.269.931.269.875-.269c2.018.415,3.969-.078,4.025-.493,0-.034-.011-.067-.011-.112,0-.078.022-.056-.034-.135-.191-.247-1.009-.5-1.3-.729-.549-.415,1.368-.661,2.242-.179.426.235.157.314-.067.46a46.551,46.551,0,0,0-.045.045l.9.258c.437-.157.729-.314.785-.493.067-.224-.135-.247-.527-.482l.919-.292-.931-.28Z" transform="translate(-209.984 -435.594)"/>
      <path id="パス_424" data-name="パス 424" class="cls-11" d="M332.984,665.88c-.448.045-.235-.022-.852-.067a7.03,7.03,0,0,0-2.455.224,1.034,1.034,0,0,0-.426.247c-.123.123-.067.123-.056.247.022.2.381.3.762.493.3.146.65.348.628.482-.034.224-.83.359-1.357.325a3.242,3.242,0,0,1-1.469-.37c-.336-.213-.022-.314.594-.516l-.919-.292c-.594.191-1.009.336-1.043.561-.045.28.157.269.572.549l-.863.269.931.269.875-.269c2.018.415,3.969-.078,4.025-.493,0-.034-.011-.067-.011-.112,0-.078.022-.056-.034-.135-.191-.247-1.009-.5-1.3-.729-.549-.415,1.368-.65,2.242-.179.426.235.157.314-.067.46a24819094710.648,24819094710.648,0,0,0-.045.045l.9.258c.437-.157.729-.314.785-.493.067-.224-.135-.247-.527-.482l.919-.292-.931-.28Z" transform="translate(-209.007 -434.706)"/>
      <path id="パス_425" data-name="パス 425" class="cls-14" d="M292.7,683.022c1.413,2.063,15.114,2.455,16.235-.022C308.9,685.467,294.8,685.915,292.7,683.022Z" transform="translate(-179.352 -450.155)"/>
      <path id="パス_426" data-name="パス 426" class="cls-15" d="M304.9,655.775c1.794.527,2.545,1.256,2.287,1.973a4.211,4.211,0,0,0-2.13-1.144,23.474,23.474,0,0,0-11.56.157c-1.39.437-2.2.975-2.4,1.525-.605-.8.146-1.693,2.242-2.354A23.475,23.475,0,0,1,304.9,655.775Z" transform="translate(-177.746 -425.408)"/>
      <path id="パス_427" data-name="パス 427" class="cls-11" d="M150.7,917.779V915.2h18.489v2.713Z" transform="translate(-53.27 -656.321)"/>
      <path id="パス_428" data-name="パス 428" class="cls-11" d="M168.963,916.5c-.258-.628-1.357-1.424-3.7-1.928a21.707,21.707,0,0,0-3.274-.46,29.688,29.688,0,0,0-6.5.235c-6.268,1.043-6.436,3.577-1.1,4.709C161.417,920.552,169.893,918.758,168.963,916.5Z" transform="translate(-53.159 -655.293)"/>
      <path id="パス_429" data-name="パス 429" class="cls-11" d="M165.263,892.376a21.707,21.707,0,0,0-3.274-.46,29.692,29.692,0,0,0-6.5.235c-6.268,1.043-6.436,3.577-1.1,4.709,7.03,1.491,15.495-.292,14.564-2.556C168.694,893.677,167.606,892.881,165.263,892.376Z" transform="translate(-53.159 -635.582)"/>
      <path id="パス_430" data-name="パス 430" class="cls-12" d="M171.244,894.439a21.654,21.654,0,0,0-4.485-.617l-1.514-.022c-.146,0-.213.011-.359.022-.191.011-.157,0-.348.011a19.276,19.276,0,0,0-5.258.863,4.906,4.906,0,0,0-1.7.908.88.88,0,0,0-.146,1.345,2.7,2.7,0,0,0,.516.46c1.11.8,3.857,1.4,6.671,1.5a17.151,17.151,0,0,0,1.872,0,19.769,19.769,0,0,0,5.606-.863c1.211-.437,1.738-.818,1.985-1.357a.6.6,0,0,0,.034-.46.455.455,0,0,0-.045-.213C173.733,895.415,172.915,894.865,171.244,894.439Z" transform="translate(-59.028 -637.32)"/>
      <path id="パス_431" data-name="パス 431" class="cls-13" d="M202.958,906.836c-.415.045-.213-.022-.8-.067a5.827,5.827,0,0,0-.751-.022,6.455,6.455,0,0,0-1.547.235.888.888,0,0,0-.4.235c-.112.112-.067.123-.056.224.022.191.359.292.718.471.292.146.617.325.594.46-.034.213-.785.336-1.278.3a3.115,3.115,0,0,1-1.379-.348c-.314-.2-.022-.3.561-.482l-.863-.269c-.561.179-.942.314-.987.527-.045.258.146.258.538.516l-.807.258.875.258.818-.258c1.895.381,3.722-.067,3.778-.46,0-.034-.011-.067-.011-.1,0-.078.022-.056-.022-.123-.179-.224-.942-.471-1.222-.684-.516-.392,1.289-.617,2.1-.168.4.224.146.3-.056.437a.039.039,0,0,0-.022.011.024.024,0,0,0-.022.022l.841.247c.4-.146.684-.3.729-.46.067-.213-.123-.235-.493-.46l.863-.28-.875-.258Z" transform="translate(-93.938 -648.685)"/>
      <path id="パス_432" data-name="パス 432" class="cls-11" d="M202.047,905.836c-.415.045-.213-.022-.8-.067a5.827,5.827,0,0,0-.751-.022,6.455,6.455,0,0,0-1.547.235,1,1,0,0,0-.4.224c-.112.112-.067.123-.056.224.022.191.359.292.718.471.292.146.617.325.594.46-.034.213-.785.336-1.267.3a3.115,3.115,0,0,1-1.379-.348c-.314-.2-.022-.3.561-.482l-.863-.269c-.561.179-.942.314-.987.527-.045.258.146.258.538.516l-.807.258.875.258.818-.258c1.895.381,3.722-.067,3.778-.46,0-.034-.011-.067-.011-.1,0-.078.022-.056-.022-.123-.179-.224-.942-.471-1.222-.684-.516-.392,1.289-.617,2.1-.168.4.224.146.3-.056.437a18.648,18.648,0,0,0-.045.045l.841.247c.4-.146.684-.3.729-.46.056-.213-.123-.235-.5-.46l.863-.28-.875-.258Z" transform="translate(-93.139 -647.797)"/>
      <path id="パス_433" data-name="パス 433" class="cls-14" d="M164.1,921.722c1.334,1.94,14.183,2.31,15.237-.022C179.315,924.01,166.073,924.436,164.1,921.722Z" transform="translate(-65.17 -662.092)"/>
      <path id="パス_434" data-name="パス 434" class="cls-15" d="M175.63,896.131c1.682.493,2.388,1.177,2.141,1.85a3.878,3.878,0,0,0-2-1.076,22.061,22.061,0,0,0-10.842.146c-1.312.4-2.063.919-2.254,1.435-.572-.751.135-1.592,2.108-2.209A21.8,21.8,0,0,1,175.63,896.131Z" transform="translate(-63.739 -638.844)"/>
      <path id="パス_435" data-name="パス 435" class="cls-11" d="M172.9,879.379V876.8h18.489v2.713Z" transform="translate(-72.981 -622.226)"/>
      <path id="パス_436" data-name="パス 436" class="cls-11" d="M191.063,878.1c-.258-.628-1.357-1.424-3.7-1.929a21.708,21.708,0,0,0-3.274-.46,29.688,29.688,0,0,0-6.5.235c-6.268,1.043-6.436,3.577-1.1,4.709C183.528,882.152,192,880.369,191.063,878.1Z" transform="translate(-72.781 -621.199)"/>
      <path id="パス_437" data-name="パス 437" class="cls-11" d="M187.463,854.076a21.707,21.707,0,0,0-3.274-.46,29.688,29.688,0,0,0-6.5.235c-6.268,1.043-6.436,3.577-1.1,4.709,7.03,1.491,15.5-.292,14.564-2.556C190.893,855.377,189.806,854.581,187.463,854.076Z" transform="translate(-72.87 -601.577)"/>
      <path id="パス_438" data-name="パス 438" class="cls-12" d="M193.444,856.139a21.658,21.658,0,0,0-4.485-.617l-1.514-.022c-.146,0-.213.011-.359.022-.191.011-.157,0-.348.011a19.276,19.276,0,0,0-5.258.863,4.906,4.906,0,0,0-1.7.908.88.88,0,0,0-.146,1.345,2.7,2.7,0,0,0,.516.46c1.11.8,3.857,1.4,6.671,1.5a17.151,17.151,0,0,0,1.872,0,19.769,19.769,0,0,0,5.606-.863c1.211-.437,1.738-.818,1.985-1.357a.6.6,0,0,0,.034-.46.455.455,0,0,0-.045-.213C195.933,857.1,195.115,856.554,193.444,856.139Z" transform="translate(-78.739 -603.314)"/>
      <path id="パス_439" data-name="パス 439" class="cls-13" d="M225.158,868.536c-.415.045-.213-.022-.8-.067a5.827,5.827,0,0,0-.751-.022,6.455,6.455,0,0,0-1.547.235.888.888,0,0,0-.4.235c-.112.112-.067.123-.056.224.022.191.359.292.718.471.292.146.617.325.594.46-.034.213-.785.336-1.278.3a3.114,3.114,0,0,1-1.379-.348c-.314-.2-.022-.3.561-.482l-.863-.269c-.561.179-.942.314-.987.527-.045.258.146.258.538.516l-.807.258.875.258.818-.258c1.895.381,3.722-.067,3.778-.46,0-.034-.011-.067-.011-.1,0-.078.022-.056-.022-.123-.179-.224-.942-.471-1.222-.684-.516-.392,1.289-.617,2.1-.168.4.224.146.3-.056.437a.039.039,0,0,0-.022.011.024.024,0,0,0-.022.022l.841.247c.4-.146.684-.3.729-.46.067-.213-.123-.235-.493-.46l.863-.28-.875-.258Z" transform="translate(-113.649 -614.679)"/>
      <path id="パス_440" data-name="パス 440" class="cls-11" d="M224.247,867.536c-.415.045-.213-.022-.8-.067a5.827,5.827,0,0,0-.751-.022,6.455,6.455,0,0,0-1.547.235,1,1,0,0,0-.4.224c-.112.112-.067.123-.056.224.022.191.359.292.718.471.292.146.617.325.594.46-.034.213-.785.336-1.267.3a3.115,3.115,0,0,1-1.379-.348c-.314-.2-.022-.3.561-.482l-.863-.269c-.561.179-.942.314-.987.527-.045.258.146.258.538.516l-.807.258.875.258.818-.258c1.895.381,3.722-.067,3.778-.46,0-.034-.011-.067-.011-.1,0-.078.022-.056-.022-.123-.179-.224-.942-.471-1.222-.684-.516-.392,1.289-.617,2.1-.168.4.224.146.3-.056.437a31.085,31.085,0,0,0-.045.045l.841.247c.4-.146.684-.3.729-.46.056-.213-.123-.235-.5-.46l.863-.28-.875-.258Z" transform="translate(-112.85 -613.792)"/>
      <path id="パス_441" data-name="パス 441" class="cls-14" d="M186.3,883.422c1.334,1.94,14.183,2.31,15.237-.022C201.515,885.71,188.273,886.125,186.3,883.422Z" transform="translate(-84.881 -628.086)"/>
      <path id="パス_442" data-name="パス 442" class="cls-15" d="M197.73,857.8c1.682.493,2.388,1.177,2.142,1.85a3.878,3.878,0,0,0-2-1.076,22.06,22.06,0,0,0-10.842.146c-1.312.4-2.063.919-2.254,1.435-.572-.751.135-1.592,2.108-2.209A22.062,22.062,0,0,1,197.73,857.8Z" transform="translate(-83.361 -604.816)"/>
      <path id="パス_443" data-name="パス 443" class="cls-11" d="M160.1,839.079V836.5h18.489v2.713Z" transform="translate(-61.616 -586.445)"/>
      <path id="パス_444" data-name="パス 444" class="cls-11" d="M178.363,837.8c-.258-.628-1.357-1.424-3.7-1.928a21.707,21.707,0,0,0-3.274-.46,29.688,29.688,0,0,0-6.5.235c-6.268,1.043-6.436,3.577-1.1,4.709C170.817,841.852,179.293,840.058,178.363,837.8Z" transform="translate(-61.505 -585.417)"/>
      <path id="パス_445" data-name="パス 445" class="cls-11" d="M174.663,813.676a21.707,21.707,0,0,0-3.274-.46,29.692,29.692,0,0,0-6.5.235c-6.268,1.043-6.436,3.577-1.1,4.709,7.03,1.491,15.5-.292,14.564-2.556C178.1,814.977,177.006,814.181,174.663,813.676Z" transform="translate(-61.505 -565.706)"/>
      <path id="パス_446" data-name="パス 446" class="cls-12" d="M180.644,815.739a21.654,21.654,0,0,0-4.485-.617l-1.514-.022c-.146,0-.213.011-.359.022-.191.011-.157,0-.348.011a19.276,19.276,0,0,0-5.258.863,4.906,4.906,0,0,0-1.7.908.88.88,0,0,0-.146,1.345,2.7,2.7,0,0,0,.516.46c1.11.8,3.857,1.4,6.671,1.5a17.151,17.151,0,0,0,1.872,0,19.769,19.769,0,0,0,5.606-.863c1.211-.437,1.738-.818,1.985-1.357a.6.6,0,0,0,.034-.46.455.455,0,0,0-.045-.213C183.144,816.714,182.315,816.165,180.644,815.739Z" transform="translate(-67.374 -567.444)"/>
      <path id="パス_447" data-name="パス 447" class="cls-13" d="M212.458,828.235c-.415.045-.213-.022-.8-.067a5.826,5.826,0,0,0-.751-.022,6.452,6.452,0,0,0-1.547.235.889.889,0,0,0-.4.235c-.112.112-.067.123-.056.224.022.191.359.292.718.471.292.146.617.325.594.46-.034.213-.785.336-1.278.3a3.115,3.115,0,0,1-1.379-.348c-.314-.2-.022-.3.561-.482l-.863-.269c-.561.179-.942.314-.987.527-.045.258.146.258.538.516l-.807.258.875.258.818-.258c1.895.381,3.722-.067,3.778-.46,0-.034-.011-.067-.011-.1,0-.078.022-.056-.022-.123-.179-.224-.942-.471-1.222-.684-.516-.392,1.289-.617,2.1-.168.4.224.146.3-.056.437a.039.039,0,0,0-.022.011.024.024,0,0,0-.022.022l.841.247c.4-.146.684-.3.729-.46.067-.213-.123-.235-.493-.46l.863-.28-.875-.258Z" transform="translate(-102.373 -578.898)"/>
      <path id="パス_448" data-name="パス 448" class="cls-11" d="M211.447,827.136c-.415.045-.213-.022-.8-.067a5.827,5.827,0,0,0-.751-.022,6.455,6.455,0,0,0-1.547.235,1,1,0,0,0-.4.224c-.112.112-.067.123-.056.224.022.191.359.292.718.471.292.146.617.325.594.46-.034.213-.785.336-1.267.3a3.115,3.115,0,0,1-1.379-.348c-.314-.2-.022-.3.561-.482l-.863-.269c-.561.179-.942.314-.987.527-.045.258.146.258.538.516l-.807.258.875.258.818-.258c1.895.381,3.722-.067,3.778-.46,0-.034-.011-.067-.011-.1,0-.078.022-.056-.022-.123-.179-.224-.942-.471-1.222-.684-.516-.392,1.289-.617,2.1-.168.4.224.146.3-.056.437a31.085,31.085,0,0,0-.045.045l.841.247c.4-.146.684-.3.729-.46.056-.213-.123-.235-.5-.46l.863-.28-.875-.258Z" transform="translate(-101.485 -577.921)"/>
      <path id="パス_449" data-name="パス 449" class="cls-14" d="M173.5,843.122c1.334,1.94,14.183,2.31,15.237-.022C188.715,845.4,175.473,845.825,173.5,843.122Z" transform="translate(-73.517 -592.305)"/>
      <path id="パス_450" data-name="パス 450" class="cls-15" d="M185.03,817.432c1.682.493,2.388,1.177,2.141,1.85a3.878,3.878,0,0,0-2-1.076,22.061,22.061,0,0,0-10.842.146c-1.312.4-2.063.919-2.254,1.435-.572-.751.135-1.592,2.108-2.209A21.8,21.8,0,0,1,185.03,817.432Z" transform="translate(-72.085 -568.968)"/>
      <path id="パス_451" data-name="パス 451" class="cls-2" d="M592.189,966.5,581.1,961.613l22.929-5.113c1.368.605,9.822,4.283,11.066,4.9Z" transform="translate(-435.416 -692.99)"/>
      <path id="パス_452" data-name="パス 452" class="cls-3" d="M624.649,964.783,602.976,969.6l-9.676-4.272,21.65-4.832Z" transform="translate(-446.248 -696.542)"/>
      <path id="パス_453" data-name="パス 453" class="cls-2" d="M634.711,992.488l-6.649,1.5a6.64,6.64,0,0,0-3.532-.5l-4.272-1.884c.9-.247.751-.706-.359-1.211l6.727-1.491c.1.2-.034.135.191.482.594.942,2.657,1.973,5.18,2.6A23.165,23.165,0,0,0,634.711,992.488Z" transform="translate(-469.866 -721.758)"/>
      <path id="パス_454" data-name="パス 454" class="cls-2" d="M723.87,968.527l4.07,1.783c.123.112.078.045-.034.135-.135.1-.426.112-.37.4s.482.426.852.751l-6.615,1.48-.123-.258c-.135-.875-2.6-2.141-5.337-2.837-.4-.1-1.043-.235-1.368-.292l-1.345-.2L720.26,968a17.749,17.749,0,0,0,1.884.493A7,7,0,0,0,723.87,968.527Z" transform="translate(-553.06 -703.201)"/>
      <path id="パス_455" data-name="パス 455" class="cls-2" d="M706.354,990.08a3.956,3.956,0,0,1,2.052.247c1.928.751-.729.975.841,1.435.572.168,1.525.056.605-.4l.74-.157c.818.392.919.65.292.852l.572.269-.359.1-.605-.269c-1.48.191-3.128-.493-2.758-.987.135-.191.684-.359.034-.628a1.4,1.4,0,0,0-1-.09c-.157.067-.034.168.056.247l.179.146-.65.146c-.426-.2-.628-.292-.684-.471-.045-.123.011-.235.292-.325l-.661-.3.392-.09Z" transform="translate(-545.691 -722.557)"/>
      <path id="パス_456" data-name="パス 456" class="cls-3" d="M658.662,1008.646c1.783-.191,4.1,1.076,2.276,1.256C659.245,1010.07,656.936,1008.825,658.662,1008.646Z" transform="translate(-503.74 -739.272)"/>
      <path id="パス_457" data-name="パス 457" class="cls-3" d="M776.946,982.321c1.828-.258,4.092.975,2.467,1.222S775.343,982.545,776.946,982.321Z" transform="translate(-608.839 -715.885)"/>
      <path id="パス_458" data-name="パス 458" class="cls-16" d="M965.611,476.48l-7.781-12.838a.554.554,0,0,1,.718-.785,7.548,7.548,0,0,0,5.931.5c4.743-1.592,10.349-3.711,8.2-1.76s0,3.319,2.343,2.343,5.27-1.76,3.319.785-5.673,11.851-5.673,11.851Z" transform="translate(-769.832 -252.885)"/>
      <path id="パス_459" data-name="パス 459" class="cls-17" d="M1026.315,480.7c-.191-.448-1.188-.3-2.343.067.46,2.579-3.352,10.2-4.451,10.371-1.828.258,0-4.989-1.558-4.989s-1.177,5.471-2.411,5.012-1.76-5.214-3.386-4.888c-.975.191,1.884,5.931,0,5.079a6.558,6.558,0,0,1-1.065-.605l1.895,3.128,7.052.1s3.722-9.317,5.673-11.851A2.288,2.288,0,0,0,1026.315,480.7Z" transform="translate(-817.205 -270.286)"/>
      <path id="パス_460" data-name="パス 460" class="cls-16" d="M902.212,598.046c-6.537,0-5.572-.65-10.326,3.9a50.8,50.8,0,0,0-4.608,4.989c-2.321,2.994-5.584,7.254-6.918,11.918-1.615,5.628.336,11.1,3.9,13.78,3.767,2.837,9.967,3.453,15.562,3.464,5.785,0,11.5-.751,15.517-3.5,3.375-2.31,5.55-7.848,3.891-13.7C917.18,611.657,905.912,598.046,902.212,598.046Z" transform="translate(-700.614 -374.697)"/>
      <path id="パス_461" data-name="パス 461" class="cls-18" d="M1024.6,590.5h7.546v1.121H1024.6Z" transform="translate(-829.191 -368.026)"/>
      <path id="パス_462" data-name="パス 462" class="cls-17" d="M1093.979,619.154c-2.052-7.243-13.32-20.854-17.009-20.854h-.37a24.293,24.293,0,0,1,1.043,37.975c4.7-.247,9.149-1.155,12.457-3.42C1093.452,630.557,1095.638,625.007,1093.979,619.154Z" transform="translate(-875.361 -374.952)"/>
      <path id="パス_463" data-name="パス 463" class="cls-19" d="M1010.227,670.145a4.137,4.137,0,0,1-1.424,3.218,7.353,7.353,0,0,1-4.126,1.57v2.926h-1.794v-2.848a13.979,13.979,0,0,1-5.483-1.02v-2.848a13.657,13.657,0,0,0,2.713.953,11.645,11.645,0,0,0,2.781.392v-5.045l-1.132-.415A8.047,8.047,0,0,1,998.532,665a4.282,4.282,0,0,1-1.02-2.915,3.792,3.792,0,0,1,1.446-3.061,7.186,7.186,0,0,1,3.935-1.458V655.3h1.794v2.22a14.732,14.732,0,0,1,5.191,1.11l-.987,2.467a14.508,14.508,0,0,0-4.2-1v4.911l1.02.392a9.387,9.387,0,0,1,3.543,2.074A3.858,3.858,0,0,1,1010.227,670.145Zm-9.553-8.084a1.76,1.76,0,0,0,.482,1.278,4.823,4.823,0,0,0,1.738,1.009v-4.193a3.188,3.188,0,0,0-1.648.661A1.579,1.579,0,0,0,1000.674,662.061Zm6.38,8.286a1.671,1.671,0,0,0-.549-1.289,5.59,5.59,0,0,0-1.828-.975v4.305C1006.258,672.14,1007.054,671.468,1007.054,670.346Z" transform="translate(-805.041 -425.561)"/>
      <path id="パス_464" data-name="パス 464" class="cls-8" d="M697.914,290.6a4.369,4.369,0,0,0,4.014,4.014c-1.312.572-3.767.168-4.014,4.014a4.929,4.929,0,0,0-4.014-4.014C695.66,294.524,697.88,292.528,697.914,290.6Z" transform="translate(-535.569 -101.751)"/>
      <path id="パス_465" data-name="パス 465" class="cls-8" d="M697.914,290.6a4.369,4.369,0,0,0,4.014,4.014c-1.312.572-3.767.168-4.014,4.014a4.929,4.929,0,0,0-4.014-4.014C695.66,294.524,697.88,292.528,697.914,290.6Z" transform="translate(-535.569 -101.751)"/>
      <path id="パス_466" data-name="パス 466" class="cls-8" d="M697.914,290.6a4.369,4.369,0,0,0,4.014,4.014c-1.312.572-3.767.168-4.014,4.014a4.929,4.929,0,0,0-4.014-4.014C695.66,294.524,697.88,292.528,697.914,290.6Z" transform="translate(-535.569 -101.751)"/>
      <path id="パス_467" data-name="パス 467" class="cls-8" d="M697.914,290.6a4.369,4.369,0,0,0,4.014,4.014c-1.312.572-3.767.168-4.014,4.014a4.929,4.929,0,0,0-4.014-4.014C695.66,294.524,697.88,292.528,697.914,290.6Z" transform="translate(-535.569 -101.751)"/>
      <path id="パス_468" data-name="パス 468" class="cls-8" d="M697.914,290.6a4.369,4.369,0,0,0,4.014,4.014c-1.312.572-3.767.168-4.014,4.014a4.929,4.929,0,0,0-4.014-4.014C695.66,294.524,697.88,292.528,697.914,290.6Z" transform="translate(-535.569 -101.751)"/>
      <path id="パス_469" data-name="パス 469" class="cls-8" d="M697.914,290.6a4.369,4.369,0,0,0,4.014,4.014c-1.312.572-3.767.168-4.014,4.014a4.929,4.929,0,0,0-4.014-4.014C695.66,294.524,697.88,292.528,697.914,290.6Z" transform="translate(-535.569 -101.751)"/>
      <path id="パス_470" data-name="パス 470" class="cls-20" d="M697.914,290.6a4.369,4.369,0,0,0,4.014,4.014c-1.312.572-3.767.168-4.014,4.014a4.929,4.929,0,0,0-4.014-4.014C695.66,294.524,697.88,292.528,697.914,290.6Z" transform="translate(-535.569 -101.751)"/>
      <path id="パス_471" data-name="パス 471" class="cls-20" d="M258.614,330a4.369,4.369,0,0,0,4.014,4.014c-1.312.572-3.767.168-4.014,4.014a4.929,4.929,0,0,0-4.014-4.014C256.36,333.924,258.58,331.928,258.614,330Z" transform="translate(-145.524 -136.733)"/>
      <path id="パス_472" data-name="パス 472" class="cls-20" d="M848.08,389.8a2.905,2.905,0,0,0,2.68,2.68c-.875.381-2.512.112-2.68,2.68a3.28,3.28,0,0,0-2.68-2.68A3.163,3.163,0,0,0,848.08,389.8Z" transform="translate(-670.083 -189.829)"/>
      <path id="パス_473" data-name="パス 473" class="cls-20" d="M1127.821,537.7a3.949,3.949,0,0,0,3.622,3.621c-1.188.516-3.4.157-3.622,3.622a4.456,4.456,0,0,0-3.621-3.622A4.281,4.281,0,0,0,1127.821,537.7Z" transform="translate(-917.624 -321.146)"/>
      <path id="パス_474" data-name="パス 474" class="cls-20" d="M1060.135,356.6a4.172,4.172,0,0,0,3.834,3.835c-1.256.538-3.6.168-3.834,3.835a4.7,4.7,0,0,0-3.834-3.835A4.531,4.531,0,0,0,1060.135,356.6Z" transform="translate(-857.337 -160.351)"/>
      <path id="パス_475" data-name="パス 475" class="cls-20" d="M1003.234,239.6a4.172,4.172,0,0,0,3.835,3.835c-1.256.538-3.6.168-3.835,3.835a4.7,4.7,0,0,0-3.834-3.835A4.531,4.531,0,0,0,1003.234,239.6Z" transform="translate(-806.816 -56.469)"/>
      <path id="パス_476" data-name="パス 476" class="cls-20" d="M807.631,197.9a3.73,3.73,0,0,0,3.431,3.431c-1.121.482-3.218.146-3.431,3.431a4.219,4.219,0,0,0-3.431-3.431A4.055,4.055,0,0,0,807.631,197.9Z" transform="translate(-633.502 -19.445)"/>
      <path id="パス_477" data-name="パス 477" class="cls-20" d="M460,249.3a4.892,4.892,0,0,0,4.5,4.5c-1.469.639-4.216.191-4.5,4.5a5.522,5.522,0,0,0-4.5-4.5C457.473,253.7,459.962,251.464,460,249.3Z" transform="translate(-323.899 -65.082)"/>
      <path id="パス_478" data-name="パス 478" class="cls-20" d="M367.614,542.6a4.369,4.369,0,0,0,4.014,4.014c-1.312.572-3.767.168-4.014,4.014a4.929,4.929,0,0,0-4.014-4.014C365.36,546.524,367.58,544.528,367.614,542.6Z" transform="translate(-242.303 -325.497)"/>
      <path id="パス_479" data-name="パス 479" class="cls-20" d="M1136.986,643.9a3.683,3.683,0,0,0,3.386,3.386c-1.11.482-3.173.146-3.386,3.386a4.158,4.158,0,0,0-3.386-3.386A4,4,0,0,0,1136.986,643.9Z" transform="translate(-925.97 -415.439)"/>
      <path id="パス_480" data-name="パス 480" class="cls-20" d="M244.814,607.7a4.369,4.369,0,0,0,4.014,4.014c-1.312.572-3.767.168-4.014,4.014a4.929,4.929,0,0,0-4.014-4.014A4.721,4.721,0,0,0,244.814,607.7Z" transform="translate(-133.271 -383.298)"/>
      <path id="パス_481" data-name="パス 481" class="cls-20" d="M605.735,383.2a2.85,2.85,0,0,0,2.635,2.635c-.863.37-2.478.112-2.635,2.635a3.235,3.235,0,0,0-2.635-2.635A3.1,3.1,0,0,0,605.735,383.2Z" transform="translate(-454.95 -183.969)"/>
      <path id="パス_482" data-name="パス 482" class="cls-20" d="M285.335,195.5a2.85,2.85,0,0,0,2.635,2.635c-.863.37-2.478.112-2.635,2.635a3.235,3.235,0,0,0-2.635-2.635A3.1,3.1,0,0,0,285.335,195.5Z" transform="translate(-170.473 -17.314)"/>
      <path id="パス_483" data-name="パス 483" class="cls-1" d="M120.819,176.4h0a4.613,4.613,0,0,0-4.619,4.619v.516a4.613,4.613,0,0,0,4.619,4.619h0a4.613,4.613,0,0,0,4.619-4.619v-.516A4.613,4.613,0,0,0,120.819,176.4Z" transform="translate(-22.641 -0.355)"/>
      <path id="パス_484" data-name="パス 484" class="cls-1" d="M1266.512,538.056a4.956,4.956,0,1,1-4.956-4.956,4.956,4.956,0,0,1,4.956,4.956Z" transform="translate(-1035.179 -317.062)"/>
    </g>
  </g>
</svg>
